<svg width="219" height="77" viewBox="0 0 219 77" fill="none" xmlns="http://www.w3.org/2000/svg">
<g clip-path="url(#clip0_153_5)">
<path d="M145.245 17.8642C148.299 17.0595 153.015 17.5602 155.331 21.4763C156.724 23.8368 156.992 26.984 155.851 29.6484C153.921 34.1905 149.038 34.6911 148.333 34.7627C147.477 34.8521 143.063 35.317 140.395 31.7048C138.197 28.7186 138.281 24.409 140.11 21.4763C141.788 18.7761 144.456 18.0787 145.245 17.8642Z" fill="#EF791B"/>
<path d="M143.315 26.0898C143.349 23.3896 145.883 21.1365 148.148 21.512C150.061 21.8339 150.984 23.9082 151.068 24.1228C151.706 25.6428 151.706 27.8423 150.313 29.3265C149.205 30.5067 147.527 30.9001 146.051 30.3279C144.305 29.6662 143.298 27.8244 143.315 26.0898Z" fill="white"/>
<path d="M159.19 34.6554H164.124V24.2123C164.191 23.944 164.443 23.0678 165.232 22.3883C166.121 21.6551 167.094 21.6909 167.346 21.6909C167.564 21.6551 168.353 21.5657 169.159 22.0664C170.048 22.6386 170.333 23.5506 170.384 23.7652V34.6554H175.418C175.418 34.6554 175.569 26.519 174.931 22.0307C174.78 20.9935 174.495 19.8312 172.951 18.6867C171.609 17.7032 170.3 17.4886 169.662 17.4171C169.075 17.3992 168.236 17.4171 167.279 17.739C165.651 18.2754 164.628 19.3126 164.141 19.8669C164.124 19.1516 164.107 18.4543 164.091 17.739H159.157V34.6375L159.19 34.6554Z" fill="#EF791B"/>
<path d="M172.985 61.8002H178.305V49.9265C178.372 49.6047 178.64 48.6212 179.513 47.8701C180.469 47.0297 181.527 47.0654 181.795 47.0833C182.03 47.0475 182.886 46.9224 183.759 47.5125C184.715 48.1562 185.017 49.1934 185.084 49.4437V61.8181H190.522C190.522 61.8181 190.689 52.5731 190.001 47.4767C189.85 46.2965 189.532 44.9732 187.87 43.6678C186.427 42.5592 185.017 42.2909 184.329 42.2194C183.692 42.1836 182.785 42.2373 181.762 42.5949C180.016 43.2029 178.892 44.3831 178.372 45.009C178.355 44.2043 178.321 43.3996 178.305 42.5949H172.985V61.8002Z" fill="#EF791B"/>
<path d="M179.295 13.2327H184.195V17.8641H187.685V21.816H184.195C184.195 21.816 184.027 27.2879 184.245 29.0761C184.279 29.3623 184.463 29.9345 184.648 30.1491C184.9 30.4173 185.638 30.614 185.991 30.6676C186.41 30.7392 187.685 30.5961 187.685 30.5961V34.4765C187.685 34.4765 185.454 34.7984 184.715 34.7805C184.027 34.7626 182.617 34.5838 181.98 34.2977C181.51 34.0831 180.604 33.4751 180.285 33.0459C179.916 32.5274 179.395 31.3293 179.295 30.6855C178.942 28.5397 179.295 21.9591 179.295 21.9591L177.314 21.8339V17.882H179.479L179.311 13.2505L179.295 13.2327Z" fill="#EF791B"/>
<path d="M205.021 31.973C204.702 32.3128 204.215 32.8135 203.527 33.2963C201.077 35.0308 196.999 36.0501 193.525 33.9222C192.888 33.5288 190.387 31.9373 189.498 28.5397C189.38 28.1105 188.558 24.6414 190.555 21.4047C192.921 17.5422 197.167 17.4528 197.721 17.4349C200.288 17.4349 202.705 18.633 204.165 20.4034C204.501 20.7968 205.189 21.6372 205.591 22.9426C205.91 23.9261 205.944 24.8381 205.994 25.7858C206.028 26.4832 206.011 27.0555 205.994 27.4846V27.6456L194.146 27.4846C194.213 27.9317 194.448 28.9867 195.287 29.8629C196.361 30.9716 197.704 31.0253 198.291 31.061C200.624 31.1505 202.252 29.5232 202.638 29.1119L205.004 31.9909L205.021 31.973Z" fill="#EF791B"/>
<path d="M194.096 24.6057H201.262C201.262 24.6057 201.161 23.6579 201.094 23.4433C200.775 22.5313 200.154 22.0485 199.953 21.9055C199.08 21.2438 198.141 21.2617 197.671 21.2796C197.05 21.2796 196.009 21.3154 195.17 22.1916C194.298 23.0857 194.247 24.2838 194.23 24.6057" fill="white"/>
<path d="M108.342 33.797H113.628C113.628 33.797 113.628 49.9445 113.628 55.1839C113.628 55.5237 113.796 56.2211 114.014 56.4535C114.283 56.7218 115.038 56.9363 115.407 56.9721C115.692 57.0079 116.582 56.9721 116.582 56.9721V61.389C116.582 61.389 114.887 61.7108 114.3 61.7645C113.83 61.8002 112.89 61.8718 112.437 61.7645C111.816 61.6214 110.524 61.2101 110.054 60.7273C109.517 60.173 108.812 58.6888 108.611 57.902C108.46 57.3119 108.325 56.1138 108.309 55.5058C108.074 50.0875 108.309 33.797 108.309 33.797H108.342Z" fill="#EF791B"/>
<path d="M120.374 44.0434C122.237 43.0063 122.153 42.9348 123.378 42.6308C126.13 41.9334 128.581 42.291 129.067 42.4162C130.443 42.7559 131.501 43.0242 132.424 44.0077C133.38 45.0448 134.454 46.386 134.521 47.9417C134.521 48.2815 134.588 48.7643 134.605 49.0683C134.756 52.0546 134.689 61.4963 134.689 61.4963L129.638 61.5321C129.638 61.5321 129.94 59.6008 129.638 59.4399C129.269 59.2253 128.396 61.1565 126.13 61.8182C126.013 61.8539 125.912 61.8718 125.862 61.8897C125.375 62.0149 122.472 62.7123 120.274 60.6201C118.327 58.7782 118.377 56.0959 118.411 55.5058C118.444 54.88 118.512 53.6103 119.351 52.4659C120.005 51.5539 120.827 51.1605 121.599 50.8028C122.808 50.2306 123.831 50.1233 124.503 50.0518C124.503 50.0518 125.896 49.9087 128.463 50.177C129.185 50.2485 129.621 50.5167 129.621 50.5167C129.621 50.5167 129.655 50.3022 129.571 49.8015C129.42 48.8895 129.47 48.9968 129.42 48.8001C129.118 47.7271 128.228 47.137 128.044 47.0119C127.725 46.7973 127.456 46.7079 127.372 46.6721C126.97 46.529 126.634 46.529 126.382 46.5469C124.922 46.5827 124.066 46.6006 123.059 47.0476C121.734 47.6377 121.079 48.21 121.079 48.21L119.367 44.6693C119.367 44.6693 119.854 44.3474 120.425 44.0434H120.374Z" fill="#EF791B"/>
<path d="M154.693 44.0434C156.555 43.0063 156.472 42.9348 157.697 42.6308C160.449 41.9334 162.899 42.291 163.386 42.4162C164.762 42.7559 165.819 43.0242 166.742 44.0077C167.698 45.0448 168.773 46.386 168.84 47.9417C168.84 48.2815 168.907 48.7643 168.924 49.0683C169.075 52.0546 169.007 61.4963 169.007 61.4963L163.956 61.5321C163.956 61.5321 164.258 59.6008 163.956 59.4399C163.587 59.2253 162.714 61.1565 160.449 61.8182C160.331 61.8539 160.231 61.8718 160.18 61.8897C159.694 62.0149 156.79 62.7123 154.592 60.6201C152.645 58.7782 152.696 56.0959 152.729 55.5058C152.763 54.88 152.83 53.6103 153.669 52.4659C154.324 51.5539 155.146 51.1605 155.918 50.8028C157.126 50.2306 158.15 50.1233 158.821 50.0518C158.821 50.0518 160.214 49.9087 162.781 50.177C163.503 50.2485 163.939 50.5167 163.939 50.5167C163.939 50.5167 163.973 50.3022 163.889 49.8015C163.738 48.8895 163.788 48.9968 163.738 48.8001C163.436 47.7271 162.547 47.137 162.362 47.0119C162.043 46.7973 161.775 46.7079 161.691 46.6721C161.288 46.529 160.952 46.529 160.701 46.5469C159.241 46.5827 158.385 46.6006 157.378 47.0476C156.052 47.6377 155.398 48.21 155.398 48.21L153.686 44.6693C153.686 44.6693 154.173 44.3474 154.743 44.0434H154.693Z" fill="#EF791B"/>
<path d="M204.668 44.0434C206.531 43.0063 206.447 42.9348 207.672 42.6308C210.424 41.9334 212.875 42.291 213.361 42.4162C214.737 42.7559 215.795 43.0242 216.718 44.0077C217.674 45.0448 218.748 46.386 218.815 47.9417C218.815 48.2815 218.882 48.7643 218.899 49.0683C219.05 52.0546 218.983 61.4963 218.983 61.4963L213.932 61.5321C213.932 61.5321 214.234 59.6008 213.932 59.4399C213.563 59.2253 212.69 61.1565 210.424 61.8182C210.307 61.8539 210.206 61.8718 210.156 61.8897C209.669 62.0149 206.766 62.7123 204.568 60.6201C202.621 58.7782 202.671 56.0959 202.705 55.5058C202.738 54.88 202.806 53.6103 203.645 52.4659C204.299 51.5539 205.121 51.1605 205.893 50.8028C207.102 50.2306 208.125 50.1233 208.797 50.0518C208.797 50.0518 210.189 49.9087 212.757 50.177C213.479 50.2485 213.915 50.5167 213.915 50.5167C213.915 50.5167 213.949 50.3022 213.865 49.8015C213.714 48.8895 213.764 48.9968 213.714 48.8001C213.412 47.7271 212.522 47.137 212.338 47.0119C212.019 46.7973 211.75 46.7079 211.666 46.6721C211.263 46.529 210.928 46.529 210.676 46.5469C209.216 46.5827 208.36 46.6006 207.353 47.0476C206.028 47.6377 205.373 48.21 205.373 48.21L203.661 44.6693C203.661 44.6693 204.148 44.3474 204.719 44.0434H204.668Z" fill="#EF791B"/>
<path d="M123.496 56.5429C123.177 55.7918 123.261 54.7726 123.764 54.2003C123.932 54.0036 124.134 53.8963 124.285 53.789C124.671 53.5566 125.09 53.4493 125.778 53.4135C126.03 53.4135 126.835 53.3599 128.396 53.6102C129.453 53.7712 129.554 53.8606 129.621 53.95C130.125 54.6116 129.487 56.3998 128.346 57.2939C127.339 58.0807 126.231 57.9913 125.929 57.9556C125.493 57.9019 124.033 57.7589 123.513 56.5429H123.496Z" fill="white"/>
<path d="M157.814 56.5429C157.495 55.7918 157.579 54.7726 158.083 54.2003C158.251 54.0036 158.452 53.8963 158.603 53.789C158.989 53.5566 159.409 53.4493 160.097 53.4135C160.348 53.4135 161.154 53.3599 162.714 53.6102C163.772 53.7712 163.872 53.8606 163.94 53.95C164.443 54.6116 163.805 56.3998 162.664 57.2939C161.657 58.0807 160.55 57.9913 160.248 57.9556C159.811 57.9019 158.351 57.7589 157.831 56.5429H157.814Z" fill="white"/>
<path d="M207.79 56.5429C207.471 55.7918 207.555 54.7726 208.058 54.2003C208.226 54.0036 208.428 53.8963 208.579 53.789C208.965 53.5566 209.384 53.4493 210.072 53.4135C210.324 53.4135 211.129 53.3599 212.69 53.6102C213.747 53.7712 213.848 53.8606 213.915 53.95C214.419 54.6116 213.781 56.3998 212.64 57.2939C211.633 58.0807 210.525 57.9913 210.223 57.9556C209.787 57.9019 208.327 57.7589 207.807 56.5429H207.79Z" fill="white"/>
<path d="M144.154 45.5633V42.7022H138.817V61.4962H144.154C144.154 61.4962 143.986 54.0215 144.154 51.3929C144.187 50.8564 144.641 49.855 144.943 49.4259C145.211 49.0146 145.933 48.3529 146.336 48.1026C146.688 47.888 147.426 47.5661 147.829 47.4946C148.148 47.441 148.786 47.4052 149.105 47.441C149.541 47.4946 150.85 47.7986 150.85 47.7986V42.5055C150.85 42.5055 149.574 42.1836 149.138 42.2015C148.584 42.2194 147.493 42.5234 146.99 42.7916C146.604 42.9883 145.866 43.5069 145.547 43.8288C145.161 44.2222 144.154 45.5633 144.154 45.5633Z" fill="#EF791B"/>
<path d="M197.201 35.9607C198.409 35.9249 199.198 36.7833 199.382 36.9978C199.634 37.2839 200.171 37.8562 200.221 38.7324C200.288 39.8768 199.466 40.8246 198.711 41.2716C198.627 41.3253 197.301 42.0406 195.975 41.2716C195.892 41.218 194.482 40.3597 194.482 38.786C194.482 37.6595 195.237 36.9263 195.405 36.7654C195.606 36.5687 196.244 35.9964 197.201 35.9607Z" fill="#045BA1"/>
<path d="M194.499 42.4877H199.886C199.886 42.4877 200.238 57.9735 199.886 63.2308C199.819 64.268 199.097 66.3065 198.426 67.0576C197.956 67.594 196.764 68.3987 196.093 68.5597C195.053 68.81 191.831 68.5597 191.831 68.5597V64.0534C191.831 64.0534 192.837 64.1249 193.173 64.1249C193.526 64.1249 194.432 63.9461 194.499 63.5527C195.338 58.5457 194.499 42.5056 194.499 42.5056V42.4877Z" fill="#EF791B"/>
<path d="M118.881 17.7747H123.647V20.0278C123.647 20.0278 124.905 18.7403 125.392 18.4363C125.879 18.1323 126.97 17.6316 127.54 17.5422C128.228 17.4171 129.621 17.3992 130.292 17.5422C130.762 17.6316 131.652 17.9893 132.088 18.2039C132.474 18.4006 133.263 18.8297 133.582 19.1516C134.068 19.6523 135.058 20.8683 135.411 21.4942C135.612 21.8339 135.797 22.4955 135.931 22.8711C136.082 23.2645 136.25 24.1228 136.283 24.5699C136.334 25.16 136.451 26.2329 136.451 26.823C136.451 27.27 136.351 28.2714 136.283 28.7006C136.183 29.2013 135.78 30.1669 135.545 30.614C135.176 31.2756 134.421 32.6168 133.884 33.1175C133.347 33.6182 132.054 34.4765 131.35 34.6732C130.762 34.8341 128.899 34.852 128.899 34.852C128.899 34.852 127.104 34.8699 126.55 34.6732C126.097 34.5123 124.973 33.5466 124.973 33.5466L123.664 32.5095L123.748 40.306H118.898V17.7926L118.881 17.7747Z" fill="#EF791B"/>
<path d="M127.674 21.7266C128.01 21.6908 129.101 21.6014 130.125 22.3346C131.668 23.4433 132.071 25.75 131.568 27.5025C131.434 27.9853 130.913 29.4874 129.42 30.2742C129.336 30.31 127.288 31.3471 125.443 30.0417C123.949 28.9867 123.462 27.0018 123.781 25.3924C124.201 23.2644 125.98 21.9054 127.674 21.7266Z" fill="white"/>
<path d="M148.517 69.4717H118.864V70.6877H148.517V69.4717Z" fill="#045BA1"/>
<path d="M178.103 69.4717H189.078L189.951 70.6877H178.103V69.4717Z" fill="#045BA1"/>
<path d="M199.55 70.6876L200.608 69.6683H208.914V70.6876H199.55Z" fill="#045BA1"/>
<path d="M171.843 69.722V70.5088H172.85V71.3314C172.85 71.3314 172.112 71.5818 171.843 71.6354C171.659 71.6712 171.273 71.6533 171.105 71.5996C170.971 71.546 170.769 71.3314 170.686 71.242C170.585 71.1347 170.4 70.8665 170.333 70.7234C170.266 70.5446 170.232 70.1333 170.216 69.9366C170.216 69.722 170.266 69.2929 170.35 69.114C170.434 68.9173 170.769 68.6133 170.937 68.4882C171.105 68.3809 171.491 68.2915 171.692 68.2736C171.86 68.2736 172.179 68.3451 172.33 68.3988C172.464 68.4524 172.834 68.7206 172.834 68.7206L172.917 68.8458L173.572 68.1842C173.572 68.1842 173.035 67.7192 172.834 67.5941C172.615 67.4689 172.129 67.3258 171.894 67.308C171.592 67.2722 170.988 67.3974 170.719 67.5225C170.501 67.612 170.115 67.9517 169.93 68.1305C169.746 68.3094 169.477 68.7206 169.393 68.9531C169.309 69.1498 169.293 69.579 169.276 69.7757C169.276 70.0439 169.293 70.5983 169.36 70.8486C169.41 71.0811 169.595 71.4566 169.746 71.6533C169.846 71.7785 170.081 72.0109 170.199 72.1182C170.35 72.2434 170.686 72.4222 170.87 72.4759C171.105 72.5295 171.609 72.5832 171.86 72.5832C172.028 72.5832 172.347 72.5116 172.498 72.4759C172.649 72.4401 173.052 72.2613 173.052 72.2613L173.471 71.9215L173.757 71.6354V69.722L171.843 69.7578V69.722Z" fill="#045BA1"/>
<path d="M161.422 72.5294H162.412V69.3285L164.661 72.5294H165.685V67.4509H164.678V70.5982L162.396 67.4509H161.422V72.5294Z" fill="#045BA1"/>
<path d="M155.297 67.3437C155.549 67.3437 156.187 67.3437 156.791 67.7907C157.512 68.3272 157.697 69.1498 157.747 69.3644C157.798 69.5789 157.999 70.6697 157.311 71.5996C156.724 72.3864 155.901 72.5116 155.666 72.5295C155.465 72.5652 154.357 72.7262 153.518 71.8321C152.813 71.0989 152.813 70.1333 152.813 69.9187C152.813 69.722 152.847 68.7742 153.569 68.0411C154.223 67.3794 155.012 67.3437 155.28 67.3258L155.297 67.3437Z" fill="#045BA1"/>
<path d="M155.18 68.2199C155.28 68.2199 155.767 68.1484 156.187 68.4881C156.556 68.7921 156.657 69.2034 156.707 69.4359C156.757 69.6505 156.959 70.5267 156.405 71.1704C155.918 71.7427 155.213 71.6711 155.163 71.6711C154.508 71.5996 154.156 71.081 154.055 70.9201C153.988 70.8307 153.737 70.4015 153.787 69.8293C153.854 69.0604 154.425 68.3272 155.146 68.2199H155.18Z" fill="white"/>
<path d="M0 71.7784H17.7885C17.7885 71.7784 19.0975 69.8472 19.6177 69.2571C20.5407 68.202 22.5377 66.235 23.6453 65.3767C24.9039 64.411 27.5554 62.6228 28.9651 61.8718C30.7775 60.8883 34.4694 59.0285 36.4329 58.3669C38.3963 57.7053 42.7092 56.6145 44.874 56.3284C46.1494 56.1495 48.7338 56.0244 50.026 55.9886C51.3182 55.9528 53.7683 55.9528 55.0269 55.9886C56.4198 56.0244 59.2223 56.1495 60.6152 56.3105C61.7563 56.4356 64.0218 56.7933 65.1294 57.0436C66.3377 57.3297 68.7375 57.9735 69.9122 58.4027C71.3218 58.9212 74.074 60.0657 75.3998 60.7631C77.0108 61.6035 80.1825 63.3918 81.6258 64.4826C83.069 65.5734 85.7708 68.1126 87.0127 69.4538C87.5329 70.0081 88.9425 71.7784 88.9425 71.7784H106.832L99.3136 65.3588L93.8931 61.2817L94.0609 51.4287L98.6759 53.5209L102.116 55.3448L105.019 57.0794C105.019 57.0794 105.305 55.7204 105.019 55.3985C104.197 54.5044 101.529 52.9844 100.337 52.1976C99.28 51.5002 97.1152 50.1948 95.9908 49.6405C93.9267 48.6212 89.5635 47.0833 87.3986 46.3144C85.4855 45.6349 81.5754 44.4189 79.612 43.9003C77.7492 43.3996 73.9398 42.6486 72.0435 42.3088C70.2982 41.987 66.774 41.4863 65.012 41.2896C63.4009 41.1107 60.1453 40.8962 58.5175 40.8246C57.2589 40.7531 54.7248 40.6995 53.4662 40.6995C51.6538 40.6995 48.029 40.8246 46.2166 40.9319C44.0014 41.075 39.571 41.5399 37.3726 41.8439C35.3756 42.1121 31.432 42.8811 29.4685 43.3102C27.891 43.6679 24.7697 44.5441 23.209 44.9911C21.9336 45.3488 19.4331 46.1535 18.1913 46.5826C16.8487 47.0476 14.214 48.1205 12.9218 48.7106C11.2772 49.4438 8.07196 51.071 6.52805 52.0009C5.23586 52.7877 1.61103 55.4521 1.61103 55.4521L1.52713 56.9363L2.56759 56.4178L4.88345 55.1124L8.54184 53.2526L11.9317 51.679V61.6214L8.25655 64.572L4.38 67.8265L0.0671264 71.7605L0 71.7784Z" fill="#EF791B"/>
<path d="M14.583 50.4094L23.3598 47.7092V55.3806L19.5168 57.2225L14.7676 59.9942L14.583 50.4094Z" fill="white"/>
<path d="M26.2129 46.7615V54.0931L30.2405 52.6089L35.5267 51.071V44.9375L31.2306 45.7958L26.2129 46.7615Z" fill="white"/>
<path d="M38.5643 44.4189L38.3965 50.3021L43.431 49.5153L48.5158 49.1219V43.5427L43.2296 43.9004L38.5643 44.4189Z" fill="white"/>
<path d="M57.7622 43.5427V49.1577L62.5953 49.5153L67.7137 50.3021V44.258L62.4275 43.8646L57.7622 43.5427Z" fill="white"/>
<path d="M70.5329 44.723V50.9638L74.5605 51.9831C74.5605 51.9831 76.6414 52.4481 77.2959 52.6984C77.9 52.913 79.6285 53.7534 79.6285 53.7534V46.7258L74.7115 45.5814L70.5161 44.723H70.5329Z" fill="white"/>
<path d="M82.4648 47.441V54.9336L86.3246 56.7755L89.5467 58.5994L91.2081 59.5293V50.3022L87.0127 48.818L82.4648 47.441Z" fill="white"/>
<path d="M27.0521 65.2157L23.9139 67.8444L21.3296 70.4373C21.3296 70.4373 19.2319 72.5116 19.3997 72.762C20.0206 73.7097 22.5379 74.3713 23.6287 74.8363C24.8034 75.337 27.2367 76.1595 28.4953 76.4099C29.4854 76.6066 31.4992 76.6602 32.5061 76.7318C33.9494 76.8391 36.8526 77 38.3126 77C40.2592 77 44.1358 76.7318 46.0489 76.4814C47.3746 76.3026 51.2848 75.4621 51.2848 75.4621C51.2848 75.4621 54.1208 74.6753 54.0705 73.8885C54.0202 73.1554 51.3351 72.7441 51.3351 72.7441L45.6965 71.993L40.3431 71.3314L37.1211 71.0989C37.1211 71.0989 35.51 70.5267 35.5604 70.0797C35.6107 69.5968 37.4064 69.3286 37.4064 69.3286L43.3974 68.506L50.5128 67.4152C50.5128 67.4152 51.3519 67.0397 51.3183 66.7894C51.2848 66.4496 50.0765 66.1993 50.0765 66.1993C50.0765 66.1993 47.811 65.8416 47.0558 65.7343C46.1496 65.5913 44.3204 65.3052 43.3974 65.2157C41.7528 65.0548 38.43 64.9833 36.7687 64.9833C34.3521 64.9833 27.1025 65.2157 27.1025 65.2157H27.0521Z" fill="#045BA1"/>
<path d="M73.3354 74.9614C73.0669 75.1581 74.1409 75.5694 74.3255 75.8198C74.4766 76.0165 74.2752 76.7139 74.5101 76.7854C75.0807 76.9821 77.363 76.5172 77.363 76.5172L81.5752 75.3548L85.5189 73.6739L87.2306 72.6725L83.0352 68.1126L79.2761 65.18L71.7579 64.0892L61.8232 63.8209L55.2113 64.1786C55.2113 64.1786 53.0297 64.107 53.0129 64.6435C52.9961 65.0727 54.6743 65.1621 54.6743 65.1621L61.1687 65.9489C61.1687 65.9489 65.6662 66.0919 65.146 66.9503C64.6258 67.8086 60.7995 67.7729 60.7995 67.7729L55.312 68.2914C55.312 68.2914 52.694 68.506 52.6772 69.1855C52.6772 69.9187 55.463 70.2763 55.463 70.2763L61.8568 70.9559L70.1301 71.7605L73.3522 72.0824C73.3522 72.0824 75.8023 72.7441 76.0205 73.4415C76.3225 74.4071 73.8724 74.5144 73.2851 74.9257L73.3354 74.9614Z" fill="#045BA1"/>
<path d="M12.5696 46.9225C12.5696 46.9225 12.5361 44.7587 12.5696 44.0435C12.6368 42.9348 12.8549 40.7353 13.0563 39.6445C13.3584 37.9457 14.0129 34.5302 14.5667 32.8851C15.1204 31.2399 16.6308 28.0033 17.4867 26.4475C18.1244 25.3031 19.4501 23.0321 20.2221 21.977C21.2625 20.5465 23.4777 17.8105 24.7363 16.5588C26.1627 15.1461 29.1834 12.428 30.8616 11.3015C32.1706 10.4253 34.9731 8.95893 36.4163 8.31517C37.9602 7.63566 41.0648 6.31239 42.7094 5.88322C44.589 5.38252 48.4319 4.75665 50.3618 4.63148C51.117 4.57783 52.6273 4.38113 53.3825 4.39901C54.1377 4.41689 55.5809 4.59571 56.3193 4.63148C57.5947 4.703 60.1455 4.97123 61.4041 5.25735C62.8473 5.57922 65.6834 6.43756 67.0427 6.9919C68.5195 7.58201 71.3892 8.94104 72.7653 9.74573C74.0575 10.4968 76.5747 12.1419 77.7662 13.036C78.8234 13.8407 80.854 15.5574 81.7938 16.4873C82.9349 17.6317 85.1333 20.0458 86.0731 21.3512C87.0129 22.6566 88.5735 25.4283 89.2952 26.8409C89.7986 27.8066 90.8391 29.7378 91.2083 30.775C91.8292 32.4738 92.685 35.9965 93.0039 37.7669C93.1885 38.7683 93.4738 40.771 93.5745 41.7724C93.6919 43.0599 93.8933 46.9225 93.8933 46.9225L94.38 43.5428C94.38 43.5428 94.531 38.1424 94.38 36.3363C94.2457 34.8521 93.7087 31.9016 93.3395 30.4531C93.0375 29.2729 92.383 26.8946 91.8963 25.768C90.8558 23.354 88.4225 18.6689 86.845 16.5588C85.6032 14.8958 82.7503 11.8022 81.1729 10.4253C79.8807 9.29868 77.1788 7.15284 75.6853 6.25874C74.4602 5.52558 71.8591 4.3096 70.5333 3.73737C69.1404 3.12939 66.3547 1.85976 64.8779 1.46636C62.6292 0.858368 58.0142 0.178851 55.6984 0.0536772C54.5908 -0.0178509 52.3756 -0.0536149 51.268 0.0536772C49.657 0.196733 46.4685 0.715312 44.9078 1.07295C43.4646 1.41271 40.5781 2.12799 39.1853 2.64657C37.2722 3.36185 33.5131 5.04276 31.7678 6.0978C29.754 7.33166 25.8775 10.1213 24.1993 11.7485C22.5211 13.3758 19.6179 16.7197 18.3929 18.5795C17.4027 20.0815 15.7246 23.2824 15.003 24.9455C14.466 26.1793 13.4758 28.6828 13.157 29.9703C12.7207 31.7049 12.1501 35.2455 12.0326 37.0337C11.9823 37.9457 12.0326 39.7697 12.0326 40.6816C12.0326 41.3969 12.0326 43.5249 12.0326 43.5249L12.6032 46.9046L12.5696 46.9225Z" fill="#EF791B"/>
<path d="M21.8664 32.903C22.8901 33.6362 25.1556 35.478 25.1556 35.478C25.1556 35.478 28.0085 37.4808 28.7637 38.214C29.5524 39.0008 31.2809 41.5937 31.2809 41.5937L35.1575 40.6817L39.2689 40.0916C39.2689 40.0916 39.3528 38.7147 39.4032 38.2497C39.4703 37.5523 39.7053 36.2112 39.9066 35.5317C40.2926 34.2978 41.3163 31.9195 41.8365 30.7393C42.0883 30.167 42.9609 28.4683 42.9609 28.4683C42.9609 28.4683 42.9609 27.9139 42.8266 27.8603C42.6756 27.7887 42.0715 28.0391 42.0715 28.0391L40.8632 29.2372L38.4131 31.6691C38.4131 31.6691 36.5335 33.4931 35.7951 33.9402C35.3085 34.2441 34.2177 34.6018 33.6639 34.7448C33.2108 34.8521 32.2375 34.9237 31.7676 34.9237C31.0627 34.9237 29.6699 34.6554 28.9818 34.4945C28.0924 34.2978 25.4745 33.4395 25.4745 33.4395L22.8565 32.6169C22.8565 32.6169 22.3027 32.3665 22.1181 32.4023C22.0342 32.4023 21.8664 32.4202 21.7993 32.4738C21.7322 32.5275 21.7993 32.8315 21.8664 32.8851V32.903Z" fill="#EF791B"/>
<path d="M33.1942 33.1533C33.6641 33.0102 33.9997 32.8314 34.1172 32.7598C34.3689 32.6168 34.9059 32.277 35.3254 31.6154C35.7953 30.8644 35.8121 30.1312 35.8121 29.8451C35.8121 29.5053 35.8121 28.8795 35.4093 28.2178C34.973 27.4847 34.3185 27.1628 33.9661 26.984C33.6305 26.823 32.976 26.5011 32.0698 26.5548C31.0629 26.6084 30.3916 27.1091 30.1399 27.3058C29.8714 27.5025 29.1834 28.039 28.8981 28.9867C28.4617 30.3815 29.2169 31.5618 29.3847 31.8121C29.5861 32.134 30.0057 32.7956 30.8783 33.1533C31.8516 33.5467 32.7914 33.2784 33.2109 33.1533H33.1942Z" fill="#EF791B"/>
<path d="M74.4768 32.5274C74.9634 32.3844 75.299 32.1877 75.4165 32.1161C75.6682 31.9731 76.222 31.6154 76.6416 30.9359C77.1115 30.1491 77.1282 29.3802 77.1282 29.0941C77.1282 28.7543 77.1282 28.0927 76.7255 27.3953C76.2892 26.6264 75.6347 26.3045 75.2655 26.1078C74.9299 25.929 74.2586 25.6071 73.3524 25.6607C72.3287 25.7323 71.6574 26.2508 71.4057 26.4475C71.1372 26.6621 70.4324 27.2165 70.1471 28.2179C69.7108 29.6663 70.4659 30.9002 70.6338 31.1684C70.8351 31.4903 71.2715 32.2056 72.1441 32.5632C73.1342 32.9745 74.074 32.6884 74.5103 32.5632L74.4768 32.5274Z" fill="#EF791B"/>
<path d="M54.4396 22.0665C55.0773 21.8877 55.5304 21.6373 55.6815 21.5479C56.0171 21.3512 56.7555 20.9042 57.3093 20.028C57.947 19.0087 57.9638 18.0431 57.9638 17.6675C57.9638 17.2205 57.9638 16.38 57.4267 15.4859C56.8394 14.5024 55.9667 14.0732 55.4801 13.8229C55.027 13.5904 54.1375 13.1791 52.9461 13.2507C51.5867 13.3401 50.6805 14.0017 50.3617 14.2521C49.9925 14.5203 49.0863 15.2356 48.6835 16.5052C48.113 18.3649 49.1198 19.9385 49.338 20.2962C49.6065 20.7254 50.1771 21.6195 51.335 22.0844C52.644 22.603 53.8858 22.2453 54.4732 22.0844L54.4396 22.0665Z" fill="#EF791B"/>
<path d="M63.0319 28.5218C63.3507 29.5053 64.5087 31.5439 64.5087 31.5439L65.8176 34.2977C65.8176 34.2977 66.6735 36.4436 66.8581 37.1231C67.0595 37.8562 67.2273 40.1094 67.2273 40.1094L69.6438 40.3776L72.1107 40.6995L75.3328 41.4326C75.3328 41.4326 77.2795 38.6788 78.0347 37.8383C78.7395 37.0694 80.8707 34.9593 80.8707 34.9593L84.3278 32.0625C84.3278 32.0625 84.7976 31.3293 84.6634 31.1684C84.5124 30.9895 83.5055 31.2041 83.5055 31.2041C83.5055 31.2041 81.0721 32.277 80.2666 32.6168C79.3604 32.9923 77.5312 33.7255 76.5914 34.0116C75.853 34.2441 74.3427 34.5481 73.5875 34.5838C73.0337 34.6017 71.8926 34.3871 71.3723 34.1904C70.785 33.958 69.6942 33.1175 69.2411 32.8135C68.3852 32.2234 67.1602 31.1505 66.3714 30.4531C65.7841 29.9345 64.5926 28.8437 64.0388 28.1642C63.9549 28.0569 63.485 27.6814 63.3172 27.7529C63.1661 27.8244 62.9815 28.3966 63.0319 28.5397V28.5218Z" fill="#EF791B"/>
<path d="M48.415 39.2332C48.5996 39.3047 57.7623 39.2332 57.7623 39.2332L58.4168 34.0474L59.9439 29.1835L62.2766 25.017L65.3308 20.9399C65.3308 20.9399 67.6803 18.4364 68.3683 17.4529C68.469 17.2919 68.5026 16.8449 68.3683 16.7018C68.1837 16.5051 67.4453 16.6303 67.2607 16.7376C66.5391 17.1489 64.7267 18.651 64.7267 18.651L61.7228 20.8326L59.2559 22.4599C59.2559 22.4599 57.2421 23.7116 56.5205 24.0514C55.7485 24.409 54.0704 24.9455 53.2145 24.9633C52.1741 24.9991 50.1267 24.3375 49.1701 23.9798C47.8612 23.497 44.3874 21.4942 44.3874 21.4942C44.3874 21.4942 40.3598 18.8298 38.883 18.2218C38.6984 18.1503 38.2118 18.0788 38.0607 18.2218C37.9097 18.3649 38.1279 18.8656 38.2453 19.0265C38.7823 19.7775 39.9235 20.9578 40.4605 21.5658C41.1318 22.3168 42.189 23.801 42.8099 24.6057C43.4308 25.4104 44.572 27.0555 45.1258 27.896C45.646 28.6649 46.6361 30.2564 46.955 31.1148C47.3577 32.2056 48.1297 34.9057 48.1465 35.0667C48.3143 36.1038 48.3982 39.269 48.3982 39.269L48.415 39.2332Z" fill="#EF791B"/>
</g>
<defs>
<clipPath id="clip0_153_5">
<rect width="219" height="77" fill="white"/>
</clipPath>
</defs>
</svg>
