<svg width="219" height="78" viewBox="0 0 219 78" fill="none" xmlns="http://www.w3.org/2000/svg">
<path d="M145.245 17.8778C148.299 17.0731 153.015 17.5741 155.331 21.4901C156.724 23.8505 156.992 26.9985 155.851 29.6629C153.921 34.2047 149.037 34.7056 148.333 34.7772C147.477 34.8666 143.063 35.3307 140.395 31.7186C138.197 28.7323 138.281 24.4227 140.11 21.4901C141.788 18.7902 144.456 18.0923 145.245 17.8778ZM148.148 21.5262C145.883 21.1507 143.349 23.4041 143.315 26.1043C143.298 27.8387 144.305 29.68 146.05 30.3416C147.527 30.9139 149.205 30.5209 150.313 29.3407C151.706 27.8564 151.706 25.6565 151.068 24.1365C150.983 23.9202 150.06 21.8479 148.148 21.5262Z" fill="#EF791B"/>
<path d="M159.19 34.6694H164.124V24.2263C164.191 23.9581 164.443 23.0819 165.232 22.4024C166.121 21.6692 167.094 21.705 167.346 21.705C167.564 21.6692 168.353 21.5798 169.159 22.0805C170.048 22.6527 170.333 23.5647 170.384 23.7793V34.6694H175.418C175.418 34.6694 175.569 26.5331 174.931 22.0447C174.78 21.0076 174.495 19.8452 172.951 18.7008C171.609 17.7173 170.3 17.5027 169.662 17.4312C169.075 17.4133 168.236 17.4312 167.279 17.753C165.651 18.2895 164.628 19.3267 164.141 19.881C164.124 19.1657 164.107 18.4683 164.091 17.753H159.157V34.6515L159.19 34.6694Z" fill="#EF791B"/>
<path d="M172.985 61.8143H178.305V49.9407C178.372 49.6188 178.64 48.6353 179.513 47.8842C180.469 47.0438 181.527 47.0796 181.795 47.0974C182.03 47.0617 182.886 46.9365 183.759 47.5266C184.715 48.1704 185.017 49.2075 185.084 49.4579V61.8322H190.522C190.522 61.8322 190.689 52.5872 190.001 47.4908C189.85 46.3106 189.531 44.9874 187.87 43.682C186.427 42.5733 185.017 42.3051 184.329 42.2335C183.691 42.1978 182.785 42.2514 181.762 42.609C180.016 43.217 178.892 44.3973 178.372 45.0231C178.355 44.2184 178.321 43.4137 178.305 42.609H172.985V61.8143Z" fill="#EF791B"/>
<path d="M179.295 13.2468H184.195V17.8782H187.686V21.8301H184.195C184.195 21.8301 184.027 27.302 184.245 29.0902C184.279 29.3764 184.463 29.9486 184.648 30.1632C184.9 30.4314 185.638 30.6281 185.991 30.6817C186.41 30.7533 187.686 30.6102 187.686 30.6102V34.4906C187.686 34.4906 185.454 34.8125 184.715 34.7946C184.027 34.7767 182.617 34.5979 181.98 34.3118C181.51 34.0972 180.604 33.4892 180.285 33.06C179.916 32.5415 179.395 31.3434 179.295 30.6996C178.942 28.5538 179.295 21.9732 179.295 21.9732L177.314 21.848V17.8961H179.479L179.311 13.2646L179.295 13.2468Z" fill="#EF791B"/>
<path d="M197.721 17.4489C200.288 17.4489 202.705 18.6473 204.165 20.4177C204.501 20.8111 205.189 21.6514 205.592 22.9567C205.911 23.94 205.944 24.8519 205.994 25.7995C206.028 26.4969 206.011 27.0696 205.994 27.4987V27.6599L194.146 27.4987C194.214 27.9458 194.449 29.0004 195.288 29.8766C196.362 30.9853 197.705 31.0391 198.292 31.0749C200.624 31.1641 202.252 29.5369 202.638 29.1257L205.004 32.0046L204.75 32.2692C204.446 32.576 204.043 32.9481 203.527 33.3102C201.077 35.0448 196.999 36.0642 193.525 33.9362C192.887 33.5426 190.387 31.9507 189.498 28.5534C189.38 28.1228 188.559 24.6545 190.556 21.4186C192.921 17.5571 197.166 17.4668 197.721 17.4489ZM197.671 21.2936C197.05 21.2936 196.009 21.3295 195.17 22.2057C194.297 23.0998 194.247 24.298 194.23 24.6198H201.262C201.262 24.6198 201.161 23.6727 201.094 23.4577C200.775 22.546 200.155 22.0628 199.953 21.9196C199.081 21.2581 198.141 21.2758 197.671 21.2936Z" fill="#EF791B"/>
<path d="M108.342 33.8111H113.628C113.628 33.8111 113.628 49.9586 113.628 55.198C113.628 55.5378 113.796 56.2352 114.014 56.4676C114.283 56.7358 115.038 56.9504 115.407 56.9862C115.692 57.022 116.582 56.9862 116.582 56.9862V61.4031C116.582 61.4031 114.887 61.7249 114.3 61.7786C113.83 61.8143 112.89 61.8859 112.437 61.7786C111.816 61.6355 110.524 61.2242 110.054 60.7414C109.517 60.1871 108.812 58.7029 108.611 57.9161C108.46 57.326 108.325 56.1279 108.308 55.5199C108.074 50.1016 108.308 33.8111 108.308 33.8111H108.342Z" fill="#EF791B"/>
<path d="M123.378 42.6452C126.13 41.9478 128.581 42.3052 129.067 42.4304C130.443 42.7701 131.501 43.0387 132.424 44.0222C133.38 45.0592 134.454 46.4002 134.521 47.9558C134.521 48.2955 134.589 48.7787 134.605 49.0827C134.756 52.0658 134.69 61.4884 134.689 61.5104L129.638 61.5466C129.638 61.5466 129.94 59.6147 129.638 59.4538C129.268 59.2398 128.396 61.1711 126.131 61.8327C126.014 61.8684 125.913 61.8862 125.862 61.904C125.376 62.0292 122.472 62.7266 120.273 60.6345C118.327 58.7928 118.378 56.1107 118.411 55.5202C118.445 54.8943 118.512 53.6246 119.351 52.4802C120.005 51.5682 120.828 51.1747 121.6 50.8171C122.808 50.2449 123.832 50.1376 124.503 50.0661C124.527 50.0636 125.918 49.9253 128.463 50.1911C129.184 50.2626 129.621 50.5309 129.621 50.5309C129.621 50.5309 129.654 50.3165 129.57 49.8161C129.419 48.9041 129.47 49.0109 129.42 48.8141C129.118 47.7418 128.229 47.1517 128.044 47.0261C127.725 46.8115 127.456 46.722 127.372 46.6862C126.969 46.5432 126.634 46.5433 126.382 46.5612C124.922 46.597 124.066 46.6152 123.06 47.0622C121.734 47.6523 121.079 48.2243 121.079 48.2243L119.367 44.6833C119.367 44.6833 119.854 44.3613 120.425 44.0573H120.374C122.237 43.0202 122.153 42.9491 123.378 42.6452ZM125.778 53.4274C125.09 53.4632 124.67 53.5709 124.284 53.8034C124.133 53.9106 123.932 54.0181 123.765 54.2145C123.261 54.7868 123.177 55.8063 123.496 56.5573H123.513C124.033 57.7728 125.492 57.9157 125.929 57.9694C126.231 58.0052 127.339 58.0951 128.346 57.3083C129.487 56.4143 130.124 54.6263 129.621 53.9645C129.554 53.8751 129.453 53.7856 128.395 53.6247C126.836 53.3745 126.03 53.4274 125.778 53.4274Z" fill="#EF791B"/>
<path d="M157.696 42.6452C160.448 41.9479 162.899 42.3052 163.386 42.4304C164.762 42.7701 165.819 43.0387 166.742 44.0222C167.699 45.0593 168.773 46.4003 168.84 47.9558C168.84 48.2956 168.907 48.7788 168.924 49.0827C169.075 52.0694 169.008 61.5105 169.008 61.5105L163.956 61.5466C163.956 61.5466 164.258 59.6148 163.956 59.4538C163.587 59.2399 162.714 61.1711 160.449 61.8327C160.332 61.8684 160.231 61.8862 160.181 61.904C159.694 62.0292 156.79 62.7267 154.592 60.6345C152.645 58.7929 152.696 56.1108 152.729 55.5202C152.763 54.8944 152.83 53.6246 153.669 52.4802C154.323 51.5682 155.146 51.1748 155.918 50.8171C157.126 50.2449 158.15 50.1377 158.821 50.0661C158.844 50.0639 160.235 49.9251 162.781 50.1911C163.503 50.2627 163.939 50.531 163.939 50.531C163.939 50.531 163.973 50.3159 163.889 49.8152C163.738 48.9038 163.789 49.0108 163.738 48.8142C163.436 47.7419 162.548 47.1517 162.362 47.0261C162.043 46.8115 161.774 46.722 161.69 46.6863C161.288 46.5433 160.952 46.5434 160.7 46.5613C159.24 46.597 158.385 46.6152 157.378 47.0622C156.052 47.6523 155.397 48.2244 155.397 48.2244L153.686 44.6833C153.686 44.6833 154.173 44.3614 154.743 44.0574H154.692C156.555 43.0203 156.472 42.9492 157.696 42.6452ZM160.097 53.4275C159.409 53.4632 158.988 53.571 158.603 53.8035C158.452 53.9106 158.251 54.0181 158.083 54.2146C157.58 54.7868 157.496 55.8063 157.814 56.5574H157.831C158.351 57.7728 159.81 57.9158 160.247 57.9695C160.549 58.0052 161.657 58.0951 162.664 57.3083C163.805 56.4143 164.443 54.6264 163.939 53.9646C163.872 53.8752 163.771 53.7857 162.714 53.6247C161.154 53.3746 160.349 53.4274 160.097 53.4275Z" fill="#EF791B"/>
<path d="M207.672 42.6452C210.424 41.9479 212.875 42.3052 213.361 42.4304C214.737 42.7701 215.795 43.0387 216.718 44.0222C217.674 45.0593 218.748 46.4003 218.815 47.9558C218.815 48.2956 218.883 48.7788 218.899 49.0827C219.05 52.0694 218.983 61.5105 218.983 61.5105L213.932 61.5466C213.932 61.5466 214.234 59.6148 213.932 59.4538C213.562 59.24 212.69 61.1712 210.425 61.8327C210.308 61.8685 210.207 61.8862 210.156 61.904C209.67 62.0292 206.766 62.7267 204.567 60.6345C202.621 58.7929 202.672 56.1108 202.705 55.5202C202.739 54.8944 202.806 53.6246 203.645 52.4802C204.299 51.5682 205.122 51.1748 205.894 50.8171C207.102 50.2449 208.126 50.1377 208.797 50.0661C208.819 50.0639 210.21 49.9251 212.757 50.1911C213.478 50.2627 213.915 50.531 213.915 50.531C213.915 50.531 213.948 50.3159 213.864 49.8152C213.713 48.9038 213.764 49.0108 213.714 48.8142C213.412 47.7418 212.523 47.1517 212.338 47.0261C212.019 46.8115 211.75 46.722 211.666 46.6863C211.263 46.5433 210.927 46.5434 210.676 46.5613C209.216 46.597 208.36 46.6152 207.354 47.0622C206.028 47.6523 205.373 48.2244 205.373 48.2244L203.661 44.6833C203.661 44.6833 204.148 44.3614 204.719 44.0574H204.668C206.531 43.0203 206.447 42.9492 207.672 42.6452ZM210.072 53.4275C209.384 53.4632 208.964 53.571 208.578 53.8035C208.427 53.9106 208.226 54.0181 208.059 54.2146C207.555 54.7868 207.471 55.8063 207.79 56.5574H207.807C208.327 57.7728 209.786 57.9158 210.223 57.9695C210.525 58.0052 211.633 58.0951 212.64 57.3083C213.781 56.4143 214.418 54.6264 213.915 53.9646C213.848 53.8752 213.747 53.7857 212.689 53.6247C211.13 53.3746 210.324 53.4274 210.072 53.4275Z" fill="#EF791B"/>
<path d="M144.154 45.5775V42.7163H138.817V61.5103H144.154C144.154 61.5103 143.986 54.0357 144.154 51.407C144.188 50.8705 144.641 49.8691 144.943 49.44C145.211 49.0287 145.933 48.3671 146.336 48.1167C146.688 47.9021 147.426 47.5802 147.829 47.5087C148.148 47.4551 148.786 47.4193 149.105 47.4551C149.541 47.5087 150.85 47.8127 150.85 47.8127V42.5196C150.85 42.5196 149.574 42.1978 149.138 42.2156C148.584 42.2335 147.494 42.5375 146.99 42.8057C146.604 43.0024 145.866 43.521 145.547 43.8429C145.161 44.2363 144.154 45.5775 144.154 45.5775Z" fill="#EF791B"/>
<path d="M197.201 35.9748C198.409 35.9391 199.198 36.7974 199.382 37.012C199.634 37.2981 200.171 37.8703 200.221 38.7465C200.288 39.891 199.466 40.8387 198.711 41.2858C198.627 41.3394 197.301 42.0547 195.976 41.2858C195.892 41.2321 194.482 40.3738 194.482 38.8002C194.482 37.6736 195.237 36.9404 195.405 36.7795C195.606 36.5828 196.244 36.0106 197.201 35.9748Z" fill="#045BA1"/>
<path d="M194.499 42.5018H199.886C199.886 42.5018 200.238 57.9876 199.886 63.2449C199.819 64.2821 199.097 66.3206 198.426 67.0717C197.956 67.6081 196.764 68.4128 196.093 68.5737C195.053 68.8241 191.831 68.5737 191.831 68.5737V64.0675C191.831 64.0675 192.837 64.139 193.173 64.139C193.526 64.139 194.432 63.9602 194.499 63.5668C195.338 58.5598 194.499 42.5196 194.499 42.5196V42.5018Z" fill="#EF791B"/>
<path d="M127.54 17.5563C128.228 17.4312 129.621 17.4134 130.292 17.5563C130.762 17.6457 131.652 18.0039 132.088 18.2184C132.474 18.4152 133.263 18.8438 133.582 19.1657C134.069 19.6665 135.059 20.8827 135.411 21.5085C135.612 21.8483 135.796 22.51 135.931 22.8854C136.082 23.2788 136.25 24.1365 136.283 24.5837C136.334 25.1738 136.451 26.2475 136.451 26.8376C136.451 27.2848 136.35 28.2854 136.283 28.7145C136.182 29.2152 135.78 30.1816 135.545 30.6286C135.176 31.2903 134.421 32.6309 133.884 33.1315C133.347 33.6322 132.054 34.4905 131.35 34.6872C130.762 34.8481 128.899 34.8659 128.899 34.8659C128.882 34.8661 127.101 34.8829 126.55 34.6872C126.1 34.5272 124.99 33.5761 124.973 33.5612L123.664 32.5241L123.748 40.32H118.897V17.8063L118.881 17.7888H123.646V20.0417C123.646 20.0417 124.906 18.7549 125.393 18.4509C125.879 18.1469 126.969 17.6458 127.54 17.5563ZM130.125 22.3483C129.102 21.6154 128.011 21.7051 127.675 21.7409C125.98 21.9197 124.201 23.279 123.781 25.4069C123.462 27.0163 123.949 29.0014 125.442 30.0563C127.288 31.3616 129.336 30.3245 129.42 30.2888C130.913 29.5019 131.433 27.9991 131.567 27.5163C132.071 25.7639 131.669 23.457 130.125 22.3483Z" fill="#EF791B"/>
<path d="M148.517 69.4857H118.864V70.7017H148.517V69.4857Z" fill="#045BA1"/>
<path d="M178.103 69.4857H189.078L189.951 70.7017H178.103V69.4857Z" fill="#045BA1"/>
<path d="M199.55 70.7017L200.607 69.6824H208.914V70.7017H199.55Z" fill="#045BA1"/>
<path d="M171.844 69.7361V70.5229H172.851V71.3455C172.851 71.3455 172.112 71.5958 171.844 71.6495C171.659 71.6852 171.273 71.6673 171.105 71.6137C170.971 71.5601 170.77 71.3455 170.686 71.2561C170.585 71.1488 170.4 70.8805 170.333 70.7375C170.266 70.5587 170.233 70.1474 170.216 69.9507C170.216 69.7361 170.266 69.3069 170.35 69.1281C170.434 68.9314 170.77 68.6274 170.937 68.5022C171.105 68.3949 171.491 68.3055 171.693 68.2876C171.86 68.2876 172.179 68.3592 172.33 68.4128C172.465 68.4665 172.834 68.7347 172.834 68.7347L172.918 68.8599L173.572 68.1982C173.572 68.1982 173.035 67.7333 172.834 67.6081C172.616 67.483 172.129 67.3399 171.894 67.322C171.592 67.2862 170.988 67.4114 170.719 67.5366C170.501 67.626 170.115 67.9658 169.931 68.1446C169.746 68.3234 169.477 68.7347 169.394 68.9672C169.31 69.1639 169.293 69.593 169.276 69.7897C169.276 70.058 169.293 70.6123 169.36 70.8627C169.41 71.0951 169.595 71.4706 169.746 71.6673C169.847 71.7925 170.082 72.025 170.199 72.1323C170.35 72.2575 170.686 72.4363 170.87 72.4899C171.105 72.5436 171.609 72.5972 171.86 72.5972C172.028 72.5972 172.347 72.5257 172.498 72.4899C172.649 72.4542 173.052 72.2753 173.052 72.2753L173.471 71.9356L173.757 71.6495V69.7361L171.844 69.7718V69.7361Z" fill="#045BA1"/>
<path d="M161.422 72.5436H162.412V69.3427L164.661 72.5436H165.685V67.4651H164.678V70.6123L162.396 67.4651H161.422V72.5436Z" fill="#045BA1"/>
<path d="M155.297 67.3581C155.549 67.3581 156.187 67.3573 156.791 67.8044C157.513 68.3408 157.697 69.164 157.747 69.3786C157.797 69.5935 157.998 70.6843 157.311 71.614C156.723 72.4005 155.901 72.5258 155.666 72.5436C155.464 72.5795 154.357 72.7398 153.519 71.8464C152.814 71.1132 152.813 70.1469 152.813 69.9323C152.814 69.7346 152.847 68.7879 153.568 68.0554C154.223 67.3937 155.012 67.3574 155.28 67.3395L155.297 67.3581ZM155.18 68.2341H155.146C154.425 68.3414 153.854 69.0745 153.787 69.8434C153.737 70.4157 153.989 70.8449 154.056 70.9343C154.157 71.0955 154.509 71.6138 155.163 71.6852C155.216 71.6855 155.919 71.7554 156.404 71.1843C156.958 70.5405 156.757 69.6645 156.707 69.4499C156.657 69.2175 156.555 68.8066 156.186 68.5026C155.767 68.163 155.281 68.234 155.18 68.2341Z" fill="#045BA1"/>
<path d="M53.4658 40.7139C54.7244 40.7139 57.259 40.7673 58.5176 40.8389C60.1453 40.9104 63.4006 41.1249 65.0117 41.3037C66.7738 41.5004 70.2987 42.0014 72.0439 42.3232C73.9404 42.663 77.7497 43.4134 79.6123 43.9141C81.5757 44.4326 85.4853 45.6486 87.3984 46.3281C89.5633 47.0971 93.9271 48.635 95.9912 49.6543C97.1156 50.2087 99.2797 51.5145 100.337 52.2119C101.528 52.9987 104.197 54.518 105.02 55.4121C105.305 55.734 105.02 57.0938 105.02 57.0938L102.116 55.3594L98.6758 53.5352L94.0605 51.4424L93.8936 61.2959L99.3135 65.373L106.832 71.793H88.9424C88.9424 71.793 87.5329 70.0221 87.0127 69.4678C85.7709 68.1267 83.0693 65.588 81.626 64.4971C80.1828 63.4063 77.0104 61.6178 75.3994 60.7773C74.0736 60.0799 71.3217 58.9355 69.9121 58.417C68.7375 57.9879 66.3383 57.3438 65.1299 57.0576C64.0223 56.8073 61.7564 56.4494 60.6152 56.3242C59.2225 56.1633 56.4204 56.0387 55.0273 56.0029C53.7688 55.9672 51.3187 55.9672 50.0264 56.0029C48.7342 56.0387 46.1494 56.164 44.874 56.3428C42.7092 56.6289 38.3961 57.7192 36.4326 58.3809C34.4691 59.0426 30.7772 60.9023 28.9648 61.8857C27.5552 62.6368 24.9042 64.425 23.6455 65.3906C22.5379 66.249 20.5412 68.2164 19.6182 69.2715C19.0979 69.8616 17.7881 71.793 17.7881 71.793H0L0.0673828 71.7744L4.37988 67.8408L8.25684 64.5859L11.9316 61.6357V51.6934L8.54199 53.2666L4.88379 55.127L2.56738 56.4316L1.52734 56.9502L1.61133 55.4658C1.65417 55.4343 5.24386 52.7968 6.52832 52.0146C8.07237 51.0847 11.2774 49.4577 12.9219 48.7246C14.2141 48.1345 16.8489 47.0616 18.1914 46.5967C19.4333 46.1675 21.9336 45.3625 23.209 45.0049C24.7697 44.5578 27.8913 43.6819 29.4688 43.3242C31.4323 42.895 35.3761 42.1266 37.373 41.8584C39.5716 41.5544 44.0017 41.0893 46.2168 40.9463C48.0292 40.839 51.6533 40.7139 53.4658 40.7139ZM14.583 50.4238L14.7676 60.0078L19.5166 57.2363L23.3604 55.3945V47.7236L14.583 50.4238ZM82.4648 54.9473L86.3242 56.7891L89.5469 58.6133L91.208 59.543V50.3164L87.0127 48.832L82.4648 47.4551V54.9473ZM31.2305 45.8096L26.2129 46.7754V54.1074L30.2402 52.623L35.5264 51.085V44.9512L31.2305 45.8096ZM70.5332 50.9775L74.5605 51.9971C74.5605 51.9971 76.641 52.4615 77.2959 52.7119C77.9 52.9265 79.6289 53.7676 79.6289 53.7676V46.7402L74.7119 45.5957L70.5332 44.7402V50.9775ZM43.2295 43.9141L38.5645 44.4326L38.3965 50.3164L43.4307 49.5293L48.5156 49.1357V43.5566L43.2295 43.9141ZM57.7627 49.1719L62.5957 49.5293L67.7139 50.3164V44.2725L62.4277 43.8789L57.7627 43.5566V49.1719ZM70.5332 44.7402V44.7373H70.5166L70.5332 44.7402Z" fill="#EF791B"/>
<path d="M27.052 65.2298L23.9138 67.8585L21.3294 70.4514C21.3294 70.4514 19.2317 72.5257 19.3995 72.776C20.0205 73.7238 22.5377 74.3854 23.6285 74.8503C24.8032 75.351 27.2366 76.1736 28.4952 76.424C29.4853 76.6207 31.4991 76.6743 32.506 76.7458C33.9492 76.8531 36.8524 77.0141 38.3124 77.0141C40.2591 77.0141 44.1356 76.7458 46.0487 76.4955C47.3745 76.3167 51.2846 75.4762 51.2846 75.4762C51.2846 75.4762 54.1207 74.6894 54.0704 73.9026C54.02 73.1694 51.3349 72.7582 51.3349 72.7582L45.6963 72.0071L40.343 71.3455L37.1209 71.113C37.1209 71.113 35.5099 70.5408 35.5602 70.0937C35.6106 69.6109 37.4062 69.3427 37.4062 69.3427L43.3972 68.5201L50.5126 67.4293C50.5126 67.4293 51.3517 67.0538 51.3182 66.8034C51.2846 66.4637 50.0763 66.2133 50.0763 66.2133C50.0763 66.2133 47.8108 65.8557 47.0556 65.7484C46.1494 65.6053 44.3202 65.3192 43.3972 65.2298C41.7526 65.0689 38.4299 64.9974 36.7685 64.9974C34.352 64.9974 27.1023 65.2298 27.1023 65.2298H27.052Z" fill="#045BA1"/>
<path d="M73.3356 74.9755C73.0671 75.1722 74.1412 75.5835 74.3258 75.8339C74.4768 76.0306 74.2754 76.728 74.5104 76.7995C75.0809 76.9962 77.3632 76.5313 77.3632 76.5313L81.5754 75.3689L85.5191 73.688L87.2308 72.6866L83.0354 68.1267L79.2763 65.1941L71.7582 64.1032L61.8235 63.835L55.2115 64.1927C55.2115 64.1927 53.0299 64.1211 53.0131 64.6576C52.9963 65.0868 54.6745 65.1762 54.6745 65.1762L61.169 65.963C61.169 65.963 65.6664 66.106 65.1462 66.9644C64.626 67.8227 60.7998 67.7869 60.7998 67.7869L55.3122 68.3055C55.3122 68.3055 52.6943 68.5201 52.6775 69.1996C52.6775 69.9328 55.4632 70.2904 55.4632 70.2904L61.857 70.9699L70.1304 71.7746L73.3524 72.0965C73.3524 72.0965 75.8025 72.7581 76.0207 73.4555C76.3228 74.4212 73.8726 74.5285 73.2853 74.9398L73.3356 74.9755Z" fill="#045BA1"/>
<path d="M12.5694 46.9366C12.5694 46.9366 12.5359 44.7728 12.5694 44.0576C12.6366 42.9489 12.8547 40.7494 13.0561 39.6586C13.3582 37.9598 14.0126 34.5443 14.5664 32.8992C15.1202 31.254 16.6306 28.0174 17.4864 26.4616C18.1241 25.3172 19.4499 23.0462 20.2218 21.9911C21.2623 20.5606 23.4775 17.8246 24.7361 16.5729C26.1625 15.1602 29.1832 12.4421 30.8614 11.3156C32.1703 10.4393 34.9729 8.97302 36.4161 8.32927C37.96 7.64975 41.0646 6.32648 42.7092 5.89731C44.5887 5.39662 48.4317 4.77074 50.3616 4.64557C51.1168 4.59192 52.6271 4.39522 53.3823 4.4131C54.1375 4.43099 55.5807 4.60981 56.3191 4.64557C57.5945 4.7171 60.1453 4.98533 61.4039 5.27144C62.8471 5.59332 65.6832 6.45166 67.0425 7.006C68.5193 7.5961 71.389 8.95514 72.7651 9.75983C74.0572 10.5109 76.5745 12.156 77.766 13.0501C78.8232 13.8548 80.8538 15.5715 81.7936 16.5014C82.9347 17.6458 85.1331 20.0599 86.0729 21.3653C87.0126 22.6707 88.5733 25.4424 89.2949 26.855C89.7984 27.8207 90.8388 29.7519 91.208 30.7891C91.829 32.4879 92.6848 36.0106 93.0037 37.781C93.1883 38.7824 93.4736 40.7851 93.5742 41.7865C93.6917 43.074 93.8931 46.9366 93.8931 46.9366L94.3798 43.5569C94.3798 43.5569 94.5308 38.1565 94.3798 36.3504C94.2455 34.8662 93.7085 31.9157 93.3393 30.4672C93.0372 29.287 92.3828 26.9087 91.8961 25.7821C90.8556 23.368 88.4223 18.683 86.8448 16.5729C85.603 14.9099 82.7501 11.8163 81.1726 10.4393C79.8805 9.31278 77.1786 7.16694 75.6851 6.27283C74.46 5.53967 71.8588 4.32369 70.5331 3.75147C69.1402 3.14348 66.3545 1.87386 64.8777 1.48045C62.629 0.872464 58.014 0.192947 55.6982 0.0677725C54.5906 -0.00375555 52.3754 -0.0395196 51.2678 0.0677725C49.6568 0.210829 46.4683 0.729407 44.9076 1.08705C43.4644 1.42681 40.5779 2.14209 39.1851 2.66067C37.272 3.37595 33.5129 5.05686 31.7676 6.1119C29.7538 7.34576 25.8772 10.1354 24.1991 11.7626C22.5209 13.3899 19.6177 16.7338 18.3926 18.5936C17.4025 20.0956 15.7244 23.2965 15.0028 24.9595C14.4657 26.1934 13.4756 28.6969 13.1568 29.9844C12.7205 31.719 12.1499 35.2596 12.0324 37.0478C11.9821 37.9598 12.0324 39.7837 12.0324 40.6957C12.0324 41.411 12.0324 43.539 12.0324 43.539L12.603 46.9187L12.5694 46.9366Z" fill="#EF791B"/>
<path d="M21.8664 32.917C22.8901 33.6502 25.1556 35.492 25.1556 35.492C25.1556 35.492 28.0085 37.4948 28.7637 38.228C29.5524 39.0148 31.2809 41.6077 31.2809 41.6077L35.1575 40.6957L39.269 40.1056C39.269 40.1056 39.3529 38.7287 39.4032 38.2637C39.4703 37.5663 39.7053 36.2252 39.9067 35.5457C40.2926 34.3118 41.3163 31.9335 41.8366 30.7533C42.0883 30.181 42.9609 28.4823 42.9609 28.4823C42.9609 28.4823 42.9609 27.9279 42.8267 27.8743C42.6756 27.8027 42.0715 28.0531 42.0715 28.0531L40.8632 29.2512L38.4131 31.6831C38.4131 31.6831 36.5336 33.5071 35.7952 33.9542C35.3085 34.2581 34.2177 34.6158 33.6639 34.7588C33.2108 34.8661 32.2375 34.9377 31.7676 34.9377C31.0628 34.9377 29.6699 34.6694 28.9818 34.5085C28.0924 34.3118 25.4745 33.4535 25.4745 33.4535L22.8566 32.6309C22.8566 32.6309 22.3028 32.3805 22.1182 32.4163C22.0343 32.4163 21.8664 32.4342 21.7993 32.4878C21.7322 32.5415 21.7993 32.8455 21.8664 32.8991V32.917Z" fill="#EF791B"/>
<path d="M33.194 33.1673C33.6639 33.0243 33.9995 32.8455 34.117 32.7739C34.3687 32.6309 34.9058 32.2911 35.3253 31.6295C35.7952 30.8784 35.812 30.1453 35.812 29.8592C35.812 29.5194 35.812 28.8935 35.4092 28.2319C34.9729 27.4987 34.3184 27.1769 33.966 26.998C33.6303 26.8371 32.9759 26.5152 32.0697 26.5689C31.0628 26.6225 30.3915 27.1232 30.1398 27.3199C29.8713 27.5166 29.1832 28.0531 28.8979 29.0008C28.4616 30.3956 29.2168 31.5758 29.3846 31.8262C29.586 32.1481 30.0055 32.8097 30.8782 33.1673C31.8515 33.5608 32.7913 33.2925 33.2108 33.1673H33.194Z" fill="#EF791B"/>
<path d="M74.4768 32.5415C74.9635 32.3984 75.2991 32.2017 75.4165 32.1302C75.6683 31.9871 76.2221 31.6295 76.6416 30.95C77.1115 30.1632 77.1283 29.3942 77.1283 29.1081C77.1283 28.7684 77.1283 28.1067 76.7255 27.4093C76.2892 26.6404 75.6347 26.3185 75.2655 26.1218C74.9299 25.943 74.2586 25.6211 73.3524 25.6748C72.3287 25.7463 71.6575 26.2649 71.4057 26.4616C71.1372 26.6762 70.4324 27.2305 70.1471 28.2319C69.7108 29.6803 70.466 30.9142 70.6338 31.1824C70.8352 31.5043 71.2715 32.2196 72.1441 32.5772C73.1343 32.9885 74.074 32.7024 74.5103 32.5772L74.4768 32.5415Z" fill="#EF791B"/>
<path d="M54.4395 22.0805C55.0772 21.9017 55.5303 21.6513 55.6814 21.5619C56.017 21.3652 56.7554 20.9182 57.3092 20.0419C57.9469 19.0227 57.9637 18.057 57.9637 17.6815C57.9637 17.2345 57.9637 16.394 57.4267 15.4999C56.8393 14.5164 55.9667 14.0872 55.48 13.8369C55.0269 13.6044 54.1375 13.1931 52.946 13.2646C51.5867 13.3541 50.6805 14.0157 50.3616 14.266C49.9924 14.5343 49.0862 15.2496 48.6834 16.5192C48.1129 18.3789 49.1198 19.9525 49.3379 20.3102C49.6064 20.7393 50.177 21.6334 51.3349 22.0984C52.6439 22.6169 53.8857 22.2593 54.4731 22.0984L54.4395 22.0805Z" fill="#EF791B"/>
<path d="M63.0317 28.5359C63.3506 29.5194 64.5085 31.558 64.5085 31.558L65.8175 34.3118C65.8175 34.3118 66.6733 36.4576 66.8579 37.1372C67.0593 37.8703 67.2271 40.1234 67.2271 40.1234L69.6437 40.3917L72.1106 40.7136L75.3326 41.4467C75.3326 41.4467 77.2793 38.6929 78.0345 37.8524C78.7393 37.0835 80.8706 34.9734 80.8706 34.9734L84.3276 32.0765C84.3276 32.0765 84.7975 31.3434 84.6632 31.1824C84.5122 31.0036 83.5053 31.2182 83.5053 31.2182C83.5053 31.2182 81.072 32.2911 80.2664 32.6309C79.3602 33.0064 77.531 33.7396 76.5913 34.0257C75.8529 34.2581 74.3425 34.5621 73.5874 34.5979C73.0336 34.6158 71.8924 34.4012 71.3722 34.2045C70.7848 33.972 69.694 33.1316 69.2409 32.8276C68.3851 32.2375 67.16 31.1646 66.3713 30.4672C65.7839 29.9486 64.5924 28.8578 64.0386 28.1783C63.9547 28.071 63.4848 27.6954 63.317 27.767C63.166 27.8385 62.9814 28.4107 63.0317 28.5538V28.5359Z" fill="#EF791B"/>
<path d="M48.4149 39.2472C48.5995 39.3188 57.7623 39.2472 57.7623 39.2472L58.4168 34.0614L59.9439 29.1975L62.2766 25.031L65.3308 20.9539C65.3308 20.9539 67.6802 18.4504 68.3683 17.4669C68.469 17.306 68.5025 16.8589 68.3683 16.7159C68.1837 16.5192 67.4453 16.6444 67.2607 16.7516C66.5391 17.1629 64.7267 18.665 64.7267 18.665L61.7228 20.8466L59.2559 22.4739C59.2559 22.4739 57.2421 23.7256 56.5205 24.0654C55.7485 24.423 54.0703 24.9595 53.2145 24.9774C52.174 25.0131 50.1267 24.3515 49.1701 23.9939C47.8612 23.511 44.3874 21.5083 44.3874 21.5083C44.3874 21.5083 40.3598 18.8438 38.883 18.2359C38.6984 18.1643 38.2117 18.0928 38.0607 18.2359C37.9097 18.3789 38.1278 18.8796 38.2453 19.0405C38.7823 19.7916 39.9235 20.9718 40.4605 21.5798C41.1317 22.3308 42.189 23.815 42.8099 24.6197C43.4308 25.4244 44.572 27.0696 45.1257 27.91C45.646 28.679 46.6361 30.2705 46.9549 31.1288C47.3577 32.2196 48.1297 34.9198 48.1464 35.0807C48.3143 36.1179 48.3982 39.283 48.3982 39.283L48.4149 39.2472Z" fill="#EF791B"/>
</svg>
