<svg width="107" height="78" viewBox="0 0 107 78" fill="none" xmlns="http://www.w3.org/2000/svg">
<path d="M53.4658 40.7139C54.7244 40.7139 57.259 40.7673 58.5176 40.8389C60.1453 40.9104 63.4006 41.1249 65.0117 41.3037C66.7738 41.5004 70.2987 42.0014 72.0439 42.3232C73.9404 42.663 77.7497 43.4134 79.6123 43.9141C81.5757 44.4326 85.4853 45.6486 87.3984 46.3281C89.5633 47.0971 93.9271 48.635 95.9912 49.6543C97.1156 50.2087 99.2797 51.5145 100.337 52.2119C101.528 52.9987 104.197 54.518 105.02 55.4121C105.305 55.734 105.02 57.0938 105.02 57.0938L102.116 55.3594L98.6758 53.5352L94.0605 51.4424L93.8936 61.2959L99.3135 65.373L106.832 71.793H88.9424C88.9424 71.793 87.5329 70.0221 87.0127 69.4678C85.7709 68.1267 83.0693 65.588 81.626 64.4971C80.1828 63.4063 77.0104 61.6178 75.3994 60.7773C74.0736 60.0799 71.3217 58.9355 69.9121 58.417C68.7375 57.9879 66.3383 57.3438 65.1299 57.0576C64.0223 56.8073 61.7564 56.4494 60.6152 56.3242C59.2225 56.1633 56.4204 56.0387 55.0273 56.0029C53.7688 55.9672 51.3187 55.9672 50.0264 56.0029C48.7342 56.0387 46.1494 56.164 44.874 56.3428C42.7092 56.6289 38.3961 57.7192 36.4326 58.3809C34.4691 59.0426 30.7772 60.9023 28.9648 61.8857C27.5552 62.6368 24.9042 64.425 23.6455 65.3906C22.5379 66.249 20.5412 68.2164 19.6182 69.2715C19.0979 69.8616 17.7881 71.793 17.7881 71.793H0L0.0673828 71.7744L4.37988 67.8408L8.25684 64.5859L11.9316 61.6357V51.6934L8.54199 53.2666L4.88379 55.127L2.56738 56.4316L1.52734 56.9502L1.61133 55.4658C1.65417 55.4343 5.24386 52.7968 6.52832 52.0146C8.07237 51.0847 11.2774 49.4577 12.9219 48.7246C14.2141 48.1345 16.8489 47.0616 18.1914 46.5967C19.4333 46.1675 21.9336 45.3625 23.209 45.0049C24.7697 44.5578 27.8913 43.6819 29.4688 43.3242C31.4323 42.895 35.3761 42.1266 37.373 41.8584C39.5716 41.5544 44.0017 41.0893 46.2168 40.9463C48.0292 40.839 51.6533 40.7139 53.4658 40.7139ZM14.583 50.4238L14.7676 60.0078L19.5166 57.2363L23.3604 55.3945V47.7236L14.583 50.4238ZM82.4648 54.9473L86.3242 56.7891L89.5469 58.6133L91.208 59.543V50.3164L87.0127 48.832L82.4648 47.4551V54.9473ZM31.2305 45.8096L26.2129 46.7754V54.1074L30.2402 52.623L35.5264 51.085V44.9512L31.2305 45.8096ZM70.5332 50.9775L74.5605 51.9971C74.5605 51.9971 76.641 52.4615 77.2959 52.7119C77.9 52.9265 79.6289 53.7676 79.6289 53.7676V46.7402L74.7119 45.5957L70.5332 44.7402V50.9775ZM43.2295 43.9141L38.5645 44.4326L38.3965 50.3164L43.4307 49.5293L48.5156 49.1357V43.5566L43.2295 43.9141ZM57.7627 49.1719L62.5957 49.5293L67.7139 50.3164V44.2725L62.4277 43.8789L57.7627 43.5566V49.1719ZM70.5332 44.7402V44.7373H70.5166L70.5332 44.7402Z" fill="#EF791B"/>
<path d="M27.052 65.2298L23.9138 67.8585L21.3294 70.4514C21.3294 70.4514 19.2317 72.5257 19.3995 72.776C20.0205 73.7238 22.5377 74.3854 23.6285 74.8503C24.8032 75.351 27.2366 76.1736 28.4952 76.424C29.4853 76.6207 31.4991 76.6743 32.506 76.7458C33.9492 76.8531 36.8524 77.0141 38.3124 77.0141C40.2591 77.0141 44.1356 76.7458 46.0487 76.4955C47.3745 76.3167 51.2846 75.4762 51.2846 75.4762C51.2846 75.4762 54.1207 74.6894 54.0704 73.9026C54.02 73.1694 51.3349 72.7582 51.3349 72.7582L45.6963 72.0071L40.343 71.3455L37.1209 71.113C37.1209 71.113 35.5099 70.5408 35.5602 70.0937C35.6106 69.6109 37.4062 69.3427 37.4062 69.3427L43.3972 68.5201L50.5126 67.4293C50.5126 67.4293 51.3517 67.0538 51.3182 66.8034C51.2846 66.4637 50.0763 66.2133 50.0763 66.2133C50.0763 66.2133 47.8108 65.8557 47.0556 65.7484C46.1494 65.6053 44.3202 65.3192 43.3972 65.2298C41.7526 65.0689 38.4299 64.9974 36.7685 64.9974C34.352 64.9974 27.1023 65.2298 27.1023 65.2298H27.052Z" fill="#045BA1"/>
<path d="M73.3356 74.9755C73.0671 75.1722 74.1412 75.5835 74.3258 75.8339C74.4768 76.0306 74.2754 76.728 74.5104 76.7995C75.0809 76.9962 77.3632 76.5313 77.3632 76.5313L81.5754 75.3689L85.5191 73.688L87.2308 72.6866L83.0354 68.1267L79.2763 65.1941L71.7582 64.1032L61.8235 63.835L55.2115 64.1927C55.2115 64.1927 53.0299 64.1211 53.0131 64.6576C52.9963 65.0868 54.6745 65.1762 54.6745 65.1762L61.169 65.963C61.169 65.963 65.6664 66.106 65.1462 66.9644C64.626 67.8227 60.7998 67.7869 60.7998 67.7869L55.3122 68.3055C55.3122 68.3055 52.6943 68.5201 52.6775 69.1996C52.6775 69.9328 55.4632 70.2904 55.4632 70.2904L61.857 70.9699L70.1304 71.7746L73.3524 72.0965C73.3524 72.0965 75.8025 72.7581 76.0207 73.4555C76.3228 74.4212 73.8726 74.5285 73.2853 74.9398L73.3356 74.9755Z" fill="#045BA1"/>
<path d="M12.5694 46.9366C12.5694 46.9366 12.5359 44.7728 12.5694 44.0576C12.6366 42.9489 12.8547 40.7494 13.0561 39.6586C13.3582 37.9598 14.0126 34.5443 14.5664 32.8992C15.1202 31.254 16.6306 28.0174 17.4864 26.4616C18.1241 25.3172 19.4499 23.0462 20.2218 21.9911C21.2623 20.5606 23.4775 17.8246 24.7361 16.5729C26.1625 15.1602 29.1832 12.4421 30.8614 11.3156C32.1703 10.4393 34.9729 8.97302 36.4161 8.32927C37.96 7.64975 41.0646 6.32648 42.7092 5.89731C44.5887 5.39662 48.4317 4.77074 50.3616 4.64557C51.1168 4.59192 52.6271 4.39522 53.3823 4.4131C54.1375 4.43099 55.5807 4.60981 56.3191 4.64557C57.5945 4.7171 60.1453 4.98533 61.4039 5.27144C62.8471 5.59332 65.6832 6.45166 67.0425 7.006C68.5193 7.5961 71.389 8.95514 72.7651 9.75983C74.0572 10.5109 76.5745 12.156 77.766 13.0501C78.8232 13.8548 80.8538 15.5715 81.7936 16.5014C82.9347 17.6458 85.1331 20.0599 86.0729 21.3653C87.0126 22.6707 88.5733 25.4424 89.2949 26.855C89.7984 27.8207 90.8388 29.7519 91.208 30.7891C91.829 32.4879 92.6848 36.0106 93.0037 37.781C93.1883 38.7824 93.4736 40.7851 93.5742 41.7865C93.6917 43.074 93.8931 46.9366 93.8931 46.9366L94.3798 43.5569C94.3798 43.5569 94.5308 38.1565 94.3798 36.3504C94.2455 34.8662 93.7085 31.9157 93.3393 30.4672C93.0372 29.287 92.3828 26.9087 91.8961 25.7821C90.8556 23.368 88.4223 18.683 86.8448 16.5729C85.603 14.9099 82.7501 11.8163 81.1726 10.4393C79.8805 9.31278 77.1786 7.16694 75.6851 6.27283C74.46 5.53967 71.8588 4.32369 70.5331 3.75147C69.1402 3.14348 66.3545 1.87386 64.8777 1.48045C62.629 0.872464 58.014 0.192947 55.6982 0.0677725C54.5906 -0.00375555 52.3754 -0.0395196 51.2678 0.0677725C49.6568 0.210829 46.4683 0.729407 44.9076 1.08705C43.4644 1.42681 40.5779 2.14209 39.1851 2.66067C37.272 3.37595 33.5129 5.05686 31.7676 6.1119C29.7538 7.34576 25.8772 10.1354 24.1991 11.7626C22.5209 13.3899 19.6177 16.7338 18.3926 18.5936C17.4025 20.0956 15.7244 23.2965 15.0028 24.9595C14.4657 26.1934 13.4756 28.6969 13.1568 29.9844C12.7205 31.719 12.1499 35.2596 12.0324 37.0478C11.9821 37.9598 12.0324 39.7837 12.0324 40.6957C12.0324 41.411 12.0324 43.539 12.0324 43.539L12.603 46.9187L12.5694 46.9366Z" fill="#EF791B"/>
<path d="M21.8664 32.917C22.8901 33.6502 25.1556 35.492 25.1556 35.492C25.1556 35.492 28.0085 37.4948 28.7637 38.228C29.5524 39.0148 31.2809 41.6077 31.2809 41.6077L35.1575 40.6957L39.269 40.1056C39.269 40.1056 39.3529 38.7287 39.4032 38.2637C39.4703 37.5663 39.7053 36.2252 39.9067 35.5457C40.2926 34.3118 41.3163 31.9335 41.8366 30.7533C42.0883 30.181 42.9609 28.4823 42.9609 28.4823C42.9609 28.4823 42.9609 27.9279 42.8267 27.8743C42.6756 27.8027 42.0715 28.0531 42.0715 28.0531L40.8632 29.2512L38.4131 31.6831C38.4131 31.6831 36.5336 33.5071 35.7952 33.9542C35.3085 34.2581 34.2177 34.6158 33.6639 34.7588C33.2108 34.8661 32.2375 34.9377 31.7676 34.9377C31.0628 34.9377 29.6699 34.6694 28.9818 34.5085C28.0924 34.3118 25.4745 33.4535 25.4745 33.4535L22.8566 32.6309C22.8566 32.6309 22.3028 32.3805 22.1182 32.4163C22.0343 32.4163 21.8664 32.4342 21.7993 32.4878C21.7322 32.5415 21.7993 32.8455 21.8664 32.8991V32.917Z" fill="#EF791B"/>
<path d="M33.194 33.1673C33.6639 33.0243 33.9995 32.8455 34.117 32.7739C34.3687 32.6309 34.9058 32.2911 35.3253 31.6295C35.7952 30.8784 35.812 30.1453 35.812 29.8592C35.812 29.5194 35.812 28.8935 35.4092 28.2319C34.9729 27.4987 34.3184 27.1769 33.966 26.998C33.6303 26.8371 32.9759 26.5152 32.0697 26.5689C31.0628 26.6225 30.3915 27.1232 30.1398 27.3199C29.8713 27.5166 29.1832 28.0531 28.8979 29.0008C28.4616 30.3956 29.2168 31.5758 29.3846 31.8262C29.586 32.1481 30.0055 32.8097 30.8782 33.1673C31.8515 33.5608 32.7913 33.2925 33.2108 33.1673H33.194Z" fill="#EF791B"/>
<path d="M74.4768 32.5415C74.9635 32.3984 75.2991 32.2017 75.4165 32.1302C75.6683 31.9871 76.2221 31.6295 76.6416 30.95C77.1115 30.1632 77.1283 29.3942 77.1283 29.1081C77.1283 28.7684 77.1283 28.1067 76.7255 27.4093C76.2892 26.6404 75.6347 26.3185 75.2655 26.1218C74.9299 25.943 74.2586 25.6211 73.3524 25.6748C72.3287 25.7463 71.6575 26.2649 71.4057 26.4616C71.1372 26.6762 70.4324 27.2305 70.1471 28.2319C69.7108 29.6803 70.466 30.9142 70.6338 31.1824C70.8352 31.5043 71.2715 32.2196 72.1441 32.5772C73.1343 32.9885 74.074 32.7024 74.5103 32.5772L74.4768 32.5415Z" fill="#EF791B"/>
<path d="M54.4395 22.0805C55.0772 21.9017 55.5303 21.6513 55.6814 21.5619C56.017 21.3652 56.7554 20.9182 57.3092 20.0419C57.9469 19.0227 57.9637 18.057 57.9637 17.6815C57.9637 17.2345 57.9637 16.394 57.4267 15.4999C56.8393 14.5164 55.9667 14.0872 55.48 13.8369C55.0269 13.6044 54.1375 13.1931 52.946 13.2646C51.5867 13.3541 50.6805 14.0157 50.3616 14.266C49.9924 14.5343 49.0862 15.2496 48.6834 16.5192C48.1129 18.3789 49.1198 19.9525 49.3379 20.3102C49.6064 20.7393 50.177 21.6334 51.3349 22.0984C52.6439 22.6169 53.8857 22.2593 54.4731 22.0984L54.4395 22.0805Z" fill="#EF791B"/>
<path d="M63.0317 28.5359C63.3506 29.5194 64.5085 31.558 64.5085 31.558L65.8175 34.3118C65.8175 34.3118 66.6733 36.4576 66.8579 37.1372C67.0593 37.8703 67.2271 40.1234 67.2271 40.1234L69.6437 40.3917L72.1106 40.7136L75.3326 41.4467C75.3326 41.4467 77.2793 38.6929 78.0345 37.8524C78.7393 37.0835 80.8706 34.9734 80.8706 34.9734L84.3276 32.0765C84.3276 32.0765 84.7975 31.3434 84.6632 31.1824C84.5122 31.0036 83.5053 31.2182 83.5053 31.2182C83.5053 31.2182 81.072 32.2911 80.2664 32.6309C79.3602 33.0064 77.531 33.7396 76.5913 34.0257C75.8529 34.2581 74.3425 34.5621 73.5874 34.5979C73.0336 34.6158 71.8924 34.4012 71.3722 34.2045C70.7848 33.972 69.694 33.1316 69.2409 32.8276C68.3851 32.2375 67.16 31.1646 66.3713 30.4672C65.7839 29.9486 64.5924 28.8578 64.0386 28.1783C63.9547 28.071 63.4848 27.6954 63.317 27.767C63.166 27.8385 62.9814 28.4107 63.0317 28.5538V28.5359Z" fill="#EF791B"/>
<path d="M48.4149 39.2472C48.5995 39.3188 57.7623 39.2472 57.7623 39.2472L58.4168 34.0614L59.9439 29.1975L62.2766 25.031L65.3308 20.9539C65.3308 20.9539 67.6802 18.4504 68.3683 17.4669C68.469 17.306 68.5025 16.8589 68.3683 16.7159C68.1837 16.5192 67.4453 16.6444 67.2607 16.7516C66.5391 17.1629 64.7267 18.665 64.7267 18.665L61.7228 20.8466L59.2559 22.4739C59.2559 22.4739 57.2421 23.7256 56.5205 24.0654C55.7485 24.423 54.0703 24.9595 53.2145 24.9774C52.174 25.0131 50.1267 24.3515 49.1701 23.9939C47.8612 23.511 44.3874 21.5083 44.3874 21.5083C44.3874 21.5083 40.3598 18.8438 38.883 18.2359C38.6984 18.1643 38.2117 18.0928 38.0607 18.2359C37.9097 18.3789 38.1278 18.8796 38.2453 19.0405C38.7823 19.7916 39.9235 20.9718 40.4605 21.5798C41.1317 22.3308 42.189 23.815 42.8099 24.6197C43.4308 25.4244 44.572 27.0696 45.1257 27.91C45.646 28.679 46.6361 30.2705 46.9549 31.1288C47.3577 32.2196 48.1297 34.9198 48.1464 35.0807C48.3143 36.1179 48.3982 39.283 48.3982 39.283L48.4149 39.2472Z" fill="#EF791B"/>
</svg>
