<svg width="122" height="89" viewBox="0 0 122 89" fill="none" xmlns="http://www.w3.org/2000/svg">
<path d="M0 82.9658H20.3142C20.3142 82.9658 21.809 80.734 22.4031 80.052C23.4571 78.8328 25.7377 76.5596 27.0025 75.5677C28.4398 74.4518 31.4678 72.3853 33.0776 71.5174C35.1473 70.3808 39.3635 68.2316 41.6057 67.467C43.8479 66.7024 48.7732 65.4418 51.2454 65.1112C52.7019 64.9045 55.6532 64.7599 57.1288 64.7185C58.6045 64.6772 61.4025 64.6772 62.8398 64.7185C64.4304 64.7599 67.6309 64.9045 69.2215 65.0905C70.5247 65.2352 73.1118 65.6485 74.3767 65.9378C75.7565 66.2684 78.497 67.0124 79.8385 67.5083C81.4483 68.1076 84.5913 69.4302 86.1052 70.2361C87.945 71.2074 91.5671 73.2739 93.2152 74.5345C94.8633 75.795 97.9488 78.7295 99.3669 80.2793C99.961 80.92 101.571 82.9658 101.571 82.9658H122L113.414 75.547L107.224 70.8354L107.416 59.449L112.686 61.8668L116.615 63.9746L119.93 65.9791C119.93 65.9791 120.256 64.4086 119.93 64.0366C118.991 63.0033 115.944 61.2468 114.583 60.3376C113.376 59.5316 110.904 58.0231 109.62 57.3825C107.263 56.2045 102.28 54.4274 99.8077 53.5388C97.623 52.7535 93.1577 51.3483 90.9155 50.749C88.7882 50.1703 84.438 49.3024 82.2724 48.9098C80.2793 48.5378 76.2548 47.9592 74.2425 47.7319C72.4028 47.5252 68.6849 47.2772 66.8259 47.1946C65.3886 47.1119 62.4948 47.0499 61.0575 47.0499C58.9877 47.0499 54.8483 47.1946 52.7785 47.3186C50.2488 47.4839 45.1894 48.0212 42.6789 48.3725C40.3984 48.6825 35.8948 49.5711 33.6525 50.067C31.8511 50.4803 28.2865 51.4929 26.5042 52.0095C25.0478 52.4228 22.1923 53.3528 20.7741 53.8487C19.241 54.386 16.2322 55.6259 14.7565 56.3079C12.8784 57.1551 9.21803 59.0357 7.45492 60.1102C5.97927 61.0195 1.83977 64.0986 1.83977 64.0986L1.74395 65.8138L2.93214 65.2145L5.57681 63.706L9.75463 61.5568L13.6258 59.7383V71.228L9.42884 74.6378L5.00188 78.3988L0.0766572 82.9451L0 82.9658Z" fill="#EF791B"/>
<path d="M16.6538 58.2711L26.6767 55.1506V64.0159L22.2881 66.1444L16.8646 69.3475L16.6538 58.2711Z" fill="white"/>
<path d="M29.9346 54.0554V62.5281L34.5341 60.8129L40.5708 59.0357V51.9476L35.6648 52.9395L29.9346 54.0554Z" fill="white"/>
<path d="M44.0396 51.3483L43.8479 58.1471L49.5972 57.2378L55.404 56.7832V50.3357L49.3673 50.749L44.0396 51.3483Z" fill="white"/>
<path d="M65.9635 50.3357V56.8245L71.4829 57.2378L77.328 58.1471V51.1623L71.2912 50.7076L65.9635 50.3357Z" fill="white"/>
<path d="M80.5476 51.6996V58.9117L85.147 60.0896C85.147 60.0896 87.5234 60.6269 88.2708 60.9162C88.9607 61.1642 90.9346 62.1354 90.9346 62.1354V54.0141L85.3195 52.6915L80.5284 51.6996H80.5476Z" fill="white"/>
<path d="M94.1734 54.8407V63.4993L98.5812 65.6278L102.261 67.7356L104.158 68.8102V58.1471L99.3669 56.4319L94.1734 54.8407Z" fill="white"/>
<path d="M30.8929 75.3817L27.3091 78.4195L24.3578 81.4159C24.3578 81.4159 21.9623 83.8131 22.1539 84.1024C22.863 85.1976 25.7377 85.9622 26.9833 86.4995C28.3249 87.0782 31.1037 88.0287 32.541 88.3181C33.6717 88.5454 35.9714 88.6074 37.1213 88.69C38.7694 88.814 42.0848 89 43.7521 89C45.9752 89 50.4021 88.69 52.5869 88.4007C54.1008 88.1941 58.5661 87.2228 58.5661 87.2228C58.5661 87.2228 61.8049 86.3135 61.7474 85.4043C61.6899 84.557 58.6236 84.0817 58.6236 84.0817L52.1844 83.2138L46.071 82.4492L42.3915 82.1805C42.3915 82.1805 40.5517 81.5192 40.6092 81.0026C40.6667 80.4447 42.7172 80.1347 42.7172 80.1347L49.5589 79.1841L57.6846 77.9235C57.6846 77.9235 58.6428 77.4896 58.6045 77.2003C58.5661 76.8076 57.1863 76.5183 57.1863 76.5183C57.1863 76.5183 54.5991 76.105 53.7367 75.981C52.7019 75.8157 50.6129 75.4851 49.5589 75.3817C47.6808 75.1957 43.8863 75.1131 41.989 75.1131C39.2293 75.1131 30.9504 75.3817 30.9504 75.3817H30.8929Z" fill="#045BA1"/>
<path d="M83.748 86.6442C83.4414 86.8715 84.6679 87.3468 84.8787 87.6361C85.0512 87.8634 84.8212 88.6694 85.0895 88.752C85.7411 88.9793 88.3475 88.442 88.3475 88.442L93.1577 87.0988L97.6613 85.1563L99.6161 83.9991L94.825 78.7295L90.5322 75.3404L81.9466 74.0798L70.6013 73.7699L63.0506 74.1832C63.0506 74.1832 60.5592 74.1005 60.5401 74.7205C60.5209 75.2164 62.4373 75.3197 62.4373 75.3197L69.8539 76.229C69.8539 76.229 74.9899 76.3943 74.3958 77.3862C73.8018 78.3782 69.4323 78.3368 69.4323 78.3368L63.1656 78.9361C63.1656 78.9361 60.1759 79.1841 60.1568 79.9694C60.1568 80.8166 63.338 81.2299 63.338 81.2299L70.6396 82.0152L80.0877 82.9451L83.7672 83.3171C83.7672 83.3171 86.5652 84.0817 86.8143 84.8877C87.1593 86.0036 84.3613 86.1276 83.6905 86.6029L83.748 86.6442Z" fill="#045BA1"/>
<path d="M14.3541 54.2414C14.3541 54.2414 14.3157 51.741 14.3541 50.9144C14.4307 49.6331 14.6799 47.0913 14.9098 45.8308C15.2548 43.8676 16.0022 39.9206 16.6346 38.0194C17.267 36.1182 18.9918 32.3778 19.9692 30.58C20.6975 29.2574 22.2114 26.6329 23.093 25.4137C24.2812 23.7605 26.8109 20.5987 28.2482 19.1522C29.8772 17.5196 33.3267 14.3786 35.2432 13.0767C36.738 12.0641 39.9384 10.3695 41.5865 9.62559C43.3497 8.84032 46.8951 7.3111 48.7732 6.81514C50.9196 6.23652 55.3082 5.51324 57.5121 5.36859C58.3745 5.30659 60.0993 5.07927 60.9617 5.09994C61.8241 5.1206 63.4722 5.32726 64.3154 5.36859C65.7719 5.45125 68.6849 5.76122 70.1222 6.09186C71.7703 6.46383 75.0091 7.45576 76.5614 8.09637C78.2479 8.77832 81.525 10.3489 83.0964 11.2788C84.5721 12.1467 87.4467 14.0479 88.8074 15.0812C90.0147 16.0111 92.3336 17.9949 93.4068 19.0695C94.71 20.3921 97.2205 23.1819 98.2937 24.6904C99.3669 26.199 101.149 29.402 101.973 31.0346C102.548 32.1505 103.736 34.3823 104.158 35.5809C104.867 37.5441 105.844 41.6151 106.209 43.6609C106.419 44.8182 106.745 47.1327 106.86 48.2899C106.994 49.7778 107.224 54.2414 107.224 54.2414L107.78 50.3358C107.78 50.3358 107.953 44.0949 107.78 42.0077C107.627 40.2925 107.013 36.8828 106.592 35.2089C106.247 33.845 105.5 31.0966 104.944 29.7947C103.756 27.0049 100.977 21.5907 99.1753 19.1522C97.7571 17.2303 94.4992 13.6553 92.6977 12.0641C91.2221 10.7622 88.1366 8.28236 86.431 7.24911C85.032 6.40184 82.0616 4.99661 80.5476 4.33533C78.9569 3.63272 75.7757 2.1655 74.0892 1.71087C71.5212 1.00826 66.251 0.222986 63.6063 0.0783304C62.3415 -0.00432987 59.8118 -0.04566 58.547 0.0783304C56.7072 0.243651 53.066 0.842938 51.2837 1.25624C49.6356 1.64887 46.3393 2.47548 44.7487 3.07476C42.5639 3.90137 38.2711 5.84388 36.278 7.06312C33.9783 8.48901 29.5514 11.7128 27.6349 13.5933C25.7185 15.4738 22.4031 19.3382 21.0041 21.4873C19.8734 23.2232 17.957 26.9222 17.1329 28.8441C16.5196 30.27 15.3889 33.1631 15.0248 34.651C14.5265 36.6555 13.875 40.7472 13.7408 42.8137C13.6833 43.8676 13.7408 45.9754 13.7408 47.0293C13.7408 47.8559 13.7408 50.3151 13.7408 50.3151L14.3924 54.2208L14.3541 54.2414Z" fill="#EF791B"/>
<path d="M24.9711 38.04C26.1401 38.8872 28.7273 41.0157 28.7273 41.0157C28.7273 41.0157 31.9852 43.3302 32.8476 44.1775C33.7483 45.0867 35.7223 48.0832 35.7223 48.0832L40.1492 47.0293L44.8445 46.3473C44.8445 46.3473 44.9403 44.7561 44.9978 44.2188C45.0745 43.4129 45.3428 41.863 45.5727 41.0777C46.0135 39.6518 47.1825 36.9034 47.7766 35.5395C48.0641 34.8782 49.0606 32.915 49.0606 32.915C49.0606 32.915 49.0606 32.2744 48.9073 32.2124C48.7348 32.1297 48.0449 32.4191 48.0449 32.4191L46.6651 33.8036L43.8671 36.6141C43.8671 36.6141 41.7207 38.7219 40.8775 39.2385C40.3217 39.5898 39.076 40.0031 38.4436 40.1685C37.9262 40.2924 36.8146 40.3751 36.278 40.3751C35.4731 40.3751 33.8825 40.0651 33.0968 39.8791C32.0811 39.6518 29.0914 38.6599 29.0914 38.6599L26.1018 37.7093C26.1018 37.7093 25.4694 37.42 25.2586 37.4613C25.1627 37.4613 24.9711 37.482 24.8944 37.544C24.8178 37.606 24.8944 37.9573 24.9711 38.0193V38.04Z" fill="#EF791B"/>
<path d="M37.907 38.3293C38.4436 38.1639 38.8269 37.9573 38.961 37.8746C39.2485 37.7093 39.8618 37.3167 40.3409 36.5521C40.8775 35.6841 40.8966 34.8369 40.8966 34.5062C40.8966 34.1136 40.8966 33.3903 40.4367 32.6257C39.9384 31.7784 39.191 31.4065 38.7886 31.1998C38.4053 31.0138 37.6579 30.6419 36.623 30.7039C35.4731 30.7659 34.7066 31.3445 34.4191 31.5718C34.1125 31.7991 33.3267 32.4191 33.0009 33.5143C32.5027 35.1262 33.3651 36.4901 33.5567 36.7794C33.7867 37.1514 34.2658 37.916 35.2623 38.3293C36.3739 38.7839 37.4471 38.4739 37.9262 38.3293H37.907Z" fill="#EF791B"/>
<path d="M85.0512 37.606C85.607 37.4407 85.9903 37.2134 86.1244 37.1307C86.4119 36.9654 87.0443 36.5521 87.5234 35.7668C88.06 34.8575 88.0792 33.969 88.0792 33.6383C88.0792 33.2457 88.0792 32.4811 87.6192 31.6751C87.121 30.7865 86.3735 30.4146 85.9519 30.1872C85.5686 29.9806 84.8021 29.6086 83.7672 29.6706C82.5982 29.7533 81.8316 30.3526 81.5441 30.5799C81.2375 30.8279 80.4326 31.4685 80.1068 32.6257C79.6085 34.2996 80.4709 35.7255 80.6626 36.0355C80.8926 36.4074 81.3908 37.234 82.3874 37.6473C83.5181 38.1226 84.5913 37.792 85.0895 37.6473L85.0512 37.606Z" fill="#EF791B"/>
<path d="M62.169 25.5169C62.8973 25.3103 63.4147 25.021 63.5872 24.9177C63.9705 24.6903 64.8137 24.1737 65.4461 23.1611C66.1744 21.9832 66.1935 20.8673 66.1935 20.4333C66.1935 19.9167 66.1935 18.9455 65.5803 17.9122C64.9095 16.7756 63.913 16.2797 63.3572 15.9904C62.8398 15.7217 61.8241 15.2464 60.4634 15.3291C58.9111 15.4324 57.8762 16.197 57.5121 16.4863C57.0905 16.7963 56.0556 17.6229 55.5957 19.0901C54.9441 21.2393 56.0939 23.0578 56.3431 23.4711C56.6497 23.9671 57.3013 25.0003 58.6236 25.5376C60.1184 26.1369 61.5366 25.7236 62.2073 25.5376L62.169 25.5169Z" fill="#EF791B"/>
<path d="M71.9811 32.977C72.3453 34.1136 73.6676 36.4694 73.6676 36.4694L75.1624 39.6518C75.1624 39.6518 76.1398 42.1316 76.3506 42.9169C76.5806 43.7642 76.7722 46.368 76.7722 46.368L79.5319 46.678L82.349 47.0499L86.0286 47.8972C86.0286 47.8972 88.2516 44.7148 89.114 43.7435C89.9189 42.8549 92.3528 40.4164 92.3528 40.4164L96.3006 37.0687C96.3006 37.0687 96.8372 36.2214 96.6839 36.0354C96.5115 35.8288 95.3616 36.0768 95.3616 36.0768C95.3616 36.0768 92.5828 37.3167 91.6629 37.7093C90.628 38.1433 88.5391 38.9906 87.4659 39.3212C86.6227 39.5898 84.8979 39.9411 84.0355 39.9825C83.4031 40.0031 82.0999 39.7552 81.5058 39.5278C80.835 39.2592 79.5894 38.2879 79.0719 37.9366C78.0945 37.2547 76.6956 36.0148 75.7948 35.2088C75.1241 34.6096 73.7634 33.349 73.131 32.5637C73.0352 32.4397 72.4986 32.0058 72.3069 32.0884C72.1344 32.1711 71.9236 32.8324 71.9811 32.9977V32.977Z" fill="#EF791B"/>
<path d="M55.289 45.3554C55.4998 45.4381 65.9635 45.3554 65.9635 45.3554L66.711 39.3625L68.4549 33.7416L71.1187 28.9267L74.6066 24.215C74.6066 24.215 77.2897 21.3219 78.0754 20.1854C78.1904 19.9994 78.2287 19.4827 78.0754 19.3174C77.8646 19.0901 77.0214 19.2348 76.8105 19.3588C75.9865 19.8341 73.9167 21.5699 73.9167 21.5699L70.4863 24.0911L67.6692 25.9716C67.6692 25.9716 65.3695 27.4181 64.5454 27.8108C63.6638 28.2241 61.7474 28.844 60.77 28.8647C59.5818 28.906 57.2438 28.1414 56.1514 27.7281C54.6566 27.1701 50.6896 24.8557 50.6896 24.8557C50.6896 24.8557 46.0902 21.7766 44.4037 21.074C44.1929 20.9913 43.6371 20.9086 43.4646 21.074C43.2922 21.2393 43.5413 21.8179 43.6755 22.0039C44.2887 22.8718 45.5919 24.2357 46.2051 24.9383C46.9717 25.8063 48.1791 27.5215 48.8881 28.4514C49.5972 29.3813 50.9004 31.2825 51.5328 32.2538C52.1269 33.1424 53.2576 34.9815 53.6217 35.9735C54.0817 37.234 54.9632 40.3545 54.9824 40.5404C55.174 41.739 55.2699 45.3967 55.2699 45.3967L55.289 45.3554Z" fill="#EF791B"/>
</svg>
