<svg width="89" height="59" viewBox="0 0 89 59" fill="none" xmlns="http://www.w3.org/2000/svg">
<path d="M44.5027 54.4333C61.6852 54.4333 76.548 44.3632 84.1942 29.4847C76.548 14.6063 61.6852 4.53611 44.5027 4.53611C27.3202 4.53611 12.4573 14.6063 4.8111 29.4847C12.4573 44.3632 27.3202 54.4333 44.5027 54.4333ZM44.5027 0C64.0907 0 81.0155 12.0207 89.0053 29.4847C81.0155 46.9487 64.0907 58.9694 44.5027 58.9694C24.9146 58.9694 7.98986 46.9487 0 29.4847C7.98986 12.0207 24.9146 0 44.5027 0ZM44.5027 9.07222C55.2417 9.07222 63.833 18.1444 63.833 29.4847C63.833 40.825 55.2417 49.8972 44.5027 49.8972C33.7636 49.8972 25.1724 40.825 25.1724 29.4847C25.1724 18.1444 33.7636 9.07222 44.5027 9.07222ZM44.5027 13.6083C40.5152 13.6083 36.6911 15.281 33.8715 18.2584C31.052 21.2358 29.468 25.274 29.468 29.4847C29.468 33.6954 31.052 37.7336 33.8715 40.711C36.6911 43.6884 40.5152 45.3611 44.5027 45.3611C48.4901 45.3611 52.3142 43.6884 55.1338 40.711C57.9534 37.7336 59.5374 33.6954 59.5374 29.4847C59.5374 25.274 57.9534 21.2358 55.1338 18.2584C52.3142 15.281 48.4901 13.6083 44.5027 13.6083Z" fill="black"/>
</svg>
